<svg width="112" height="32" viewBox="0 0 112 32" fill="none" xmlns="http://www.w3.org/2000/svg">
<path fill-rule="evenodd" clip-rule="evenodd" d="M80.3632 26.0204C80.3776 25.6739 80.3849 25.3256 80.3849 24.9756C80.3849 11.182 69.0663 0 55.104 0C42.6533 0 32.3048 8.8919 30.21 20.5984C28.8301 19.4345 27.0396 18.7317 25.0829 18.7317C20.7865 18.7317 17.2911 22.1199 17.1851 26.3392C15.8016 25.9592 14.3435 25.7561 12.8375 25.7561C7.61014 25.7561 2.96123 28.2027 0 32H30.7248C30.7537 31.9709 30.7824 31.9416 30.8108 31.912C30.8194 31.9414 30.828 31.9707 30.8367 32H112C104.187 28.0097 95.3173 25.7561 85.9151 25.7561C84.042 25.7561 82.1899 25.8455 80.3632 26.0204Z" fill="#7EC8E3" opacity='0.15'/>
</svg>
