<svg width="232" height="55" viewBox="0 0 232 55" fill="none" xmlns="http://www.w3.org/2000/svg">
<path fill-rule="evenodd" clip-rule="evenodd" d="M108.242 34C108.242 34.9395 108.204 35.8701 108.13 36.7904C110.246 35.6482 112.669 35 115.242 35C122.072 35 127.835 39.564 129.649 45.8083C142.184 42.0305 155.476 40 169.242 40C191.714 40 212.923 45.4105 231.636 55H101.096C101.084 54.967 101.073 54.934 101.061 54.901C101.035 54.934 101.01 54.967 100.984 55H0C9.46903 45.7211 22.4376 40 36.7424 40C38.107 40 39.4595 40.0521 40.798 40.1543C40.433 38.1583 40.2424 36.1014 40.2424 34C40.2424 15.2223 55.4647 0 74.2424 0C93.0201 0 108.242 15.2223 108.242 34Z" fill="white" opacity='0.5'/>
</svg>
