<?xml version="1.0" encoding="UTF-8"?>
<svg id="Layer_2" data-name="Layer 2" xmlns="http://www.w3.org/2000/svg" xmlns:xlink="http://www.w3.org/1999/xlink" version="1.1" viewBox="0 0 1271.5 225.1">
  <defs>
    <style>
      .cls-1 {
        fill: #e24b4b;
      }

      .cls-1, .cls-2, .cls-3, .cls-4, .cls-5, .cls-6, .cls-7, .cls-8, .cls-9, .cls-10, .cls-11, .cls-12, .cls-13 {
        stroke-width: 0px;
      }

      .cls-1, .cls-9 {
        fill-rule: evenodd;
      }

      .cls-2 {
        fill: url(#linear-gradient);
      }

      .cls-3 {
        fill: #c69c6d;
      }

      .cls-4 {
        fill: #a4d8d8;
      }

      .cls-5 {
        fill: #8c8c8c;
      }

      .cls-6 {
        fill: #a67c52;
      }

      .cls-7 {
        fill: #999;
      }

      .cls-8 {
        fill: #8c6239;
      }

      .cls-9 {
        fill: url(#linear-gradient-2);
      }

      .cls-10 {
        fill: #5b894c;
      }

      .cls-11 {
        fill: #81bf6a;
      }

      .cls-12 {
        fill: #44934c;
      }

      .cls-13 {
        fill: #7fbdc8;
      }
    </style>
    <linearGradient id="linear-gradient" x1="574.6" y1="50.9" x2="802.7" y2="50.9" gradientTransform="translate(0 228) scale(1 -1)" gradientUnits="userSpaceOnUse">
      <stop offset="0" stop-color="#fff"/>
      <stop offset="1" stop-color="#fff" stop-opacity=".5"/>
    </linearGradient>
    <linearGradient id="linear-gradient-2" x1="496.5" y1="-1598.9" x2="496.5" y2="-1626.9" gradientTransform="translate(0 -1530) scale(1 -1)" gradientUnits="userSpaceOnUse">
      <stop offset="0" stop-color="#b83b3b"/>
      <stop offset="1" stop-color="#6f181d"/>
    </linearGradient>
  </defs>
  <path class="cls-10" d="M477,225.1s74.5-88.1,208-88.1,190.1,52.6,249.8,54c32.6.8,36.9-10.7,65.2-7.6,49,5.4,105.7,41.8,105.7,41.8H477Z"/>
  <g>
    <path class="cls-2" d="M637.8,150.8c-47,8.9-80.4,27.2-53.7,34.5,19.4,5.3,19,11,35.7,15.2,35.8,9.1,118.5,8.6,142.4,3.6,38.1-7.9,36.1-20.3,30.5-27.3-6.7-8.3,15.6-10.9,8.6-16-6.9-5-23-2.7-40.5-5.1-24.1-3.3-67.5-15.3-122.9-4.9h0Z"/>
    <path class="cls-6" d="M785.6,147.1v1.4c0,.2.2.5.5.5s.5-.2.5-.5v-1.4c0-.2-.2-.5-.5-.5s-.5.2-.5.5Z"/>
    <path class="cls-6" d="M763.9,131.7c.2.3.4.7.6,1h0c0,.2.2.3.3.3h.3c.2-.1.3-.4.2-.6-.2-.3-.4-.7-.6-1h0c0-.1-.2-.3-.3-.3h-.3c-.2.1-.3.4-.2.6h0Z"/>
    <path class="cls-13" d="M768.6,175.6c0,14.4-37.4,26-83.5,26s-83.5-11.6-83.5-26,37.4-26,83.5-26,83.5,11.6,83.5,26Z"/>
    <path class="cls-4" d="M763.6,175.1c0,14.1-36.3,25.5-81,25.5s-81-11.4-81-25.5,36.3-25.5,81-25.5,81,11.4,81,25.5Z"/>
    <path class="cls-3" d="M775.5,167.7h.2c1.6-11.2,0-23.8-4.3-34.1-1.1-2.6-2.4-5-3.9-7.4,6.1,12.9,8.4,27.3,8,41.5h0Z"/>
    <path class="cls-3" d="M782.7,173.2c1.3-3.1,2.1-6.3,2.8-9.5.7-3.4,1-6.9,1.1-10.4-1,6.6-2.1,13.5-4,19.9h.1Z"/>
    <path class="cls-5" d="M598.6,169.1l-6.5-9.4-7-.3-2.1,2.7-2.1.9-3.6,10.4,2.8.8h11l7.6-5.1h-.1Z"/>
    <path class="cls-5" d="M612.8,160.5l-3.7-3.7h-4.3l-3.2,4.7,7,1,4.3-2h0Z"/>
    <path class="cls-7" d="M608,158.7l-3.4-.9.2-.9h4.3l-1.1,1.8h0Z"/>
    <path class="cls-7" d="M591.2,161.2l3.7,2.4,3.7,5.5-7.6,5.1.2-13h0Z"/>
    <path class="cls-5" d="M602.7,166.1l-6.9-1,1.4,4.9,5.8-.8,1.4-1.1-1.7-1.9h0Z"/>
    <path class="cls-7" d="M595.9,165.1l6.9,1-2.2.9-4.6-2h-.1Z"/>
    <path class="cls-3" d="M775.6,167.7c.3-7.5-1.1-15.1-3.9-22.1l-.4-1s-.4-1-.5-1c-.7-1.5-1.6-3.3-2.4-4.7-.6-.9-1.2-1.8-1.8-2.7.6,1.3,1.3,2.5,1.9,3.8,4,8.7,6.2,18.2,6.9,27.7h.2Z"/>
    <path class="cls-12" d="M776.1,167.7c3.6-7.2,6.3-19.4,4.5-26.8-1.5,4.6-2.8,9.1-3.7,13.8-.8,4.3-1.5,8.5-1.5,12.9h.8,0Z"/>
    <path class="cls-12" d="M776,167.7c1-2.8,1.4-5.8,1.6-8.7,0-3.4,0-6.8-1-10.1-.5,3.3-.7,6.7-.8,10,0,2.9-.3,5.8-.2,8.8h.5,0Z"/>
    <path class="cls-12" d="M773.7,167.7h.7c.3-5.3-3.2-11.6-7.3-14.4h0c.8,1.3,1.7,2.5,2.4,3.8,1.9,3.2,3.5,6.6,4.2,10.2v.4h0Z"/>
    <path class="cls-12" d="M782.8,173.2c2.4-1.6,4.7-5.2,3.4-7.9-.9,2.9-2.7,5.1-3.8,7.9h.4,0Z"/>
    <path class="cls-8" d="M769,125.3c-1-1.9-2-3.9-3-5.8-1.1-2.1-4.3-.2-3.2,1.8,1,1.9,2,3.9,3,5.8,1.1,2.1,4.3.2,3.2-1.8Z"/>
    <path class="cls-8" d="M768.8,136.5c-.8-1.4-1.5-2.7-2.2-4.1-1-1.7-3.6-.2-2.6,1.5.8,1.4,1.5,2.7,2.2,4.1,1,1.7,3.6.2,2.6-1.5Z"/>
    <path class="cls-8" d="M784.7,148.9c0,1.3,0,2.6,0,4,0,2,3.1,2,3,0,0-1.3,0-2.6,0-4,0-2-3.1-2-3,0Z"/>
  </g>
  <path class="cls-1" d="M496.5,42.2c-14.8,0-23.3,10.9-23.3,10.9l-15.2,130.7h77l-15.2-130.7s-8.5-10.9-23.3-10.9h0Z"/>
  <path class="cls-9" d="M507.2,79.8v17.1h-21.5v-17.1c0-6,4.8-10.8,10.7-10.8s10.7,4.8,10.7,10.8h0Z"/>
  <path class="cls-11" d="M139.4,225s57-58.5,108.1-58.5,51.1,14.6,81.7,14.6c55.3,0,61.9-43.8,123-43.8s217.8,87.7,217.8,87.7H139.4Z"/>
</svg>