<svg width="177" height="149" viewBox="0 0 177 149" fill="none" xmlns="http://www.w3.org/2000/svg">
<path d="M161 48H14V103.062L14.0428 103.04C14.0143 103.311 14 103.582 14 103.855C14 116.922 46.9071 127.515 87.5 127.515C127.052 127.515 159.308 117.458 160.936 104.855C160.899 104.569 160.846 104.284 160.777 104C160.851 104.033 160.923 104.067 160.996 104.1C160.999 104.018 161 103.937 161 103.855C161 103.231 160.925 102.612 160.777 102C160.852 102.034 160.926 102.068 161 102.102V48Z" fill="white"/>
<path d="M75.0481 129.177C66.2918 128.696 58.0636 127.716 50.6556 126.332C50.2251 128.04 50 129.802 50 131.603C50 137.286 52.242 142.581 56.1063 147.028C63.1232 147.918 70.578 148.528 78.3378 148.814C78.1328 148.806 77.9281 148.799 77.7236 148.791C76.014 144.01 75 138.057 75 131.603C75 130.786 75.0163 129.977 75.0481 129.177Z" fill="white"/>
<path d="M99.2764 148.791C106.815 148.496 114.062 147.895 120.894 147.028C124.758 142.581 127 137.286 127 131.603C127 129.672 126.741 127.787 126.248 125.964C118.91 127.432 110.71 128.496 101.947 129.058C101.982 129.897 102 130.745 102 131.603C102 138.057 100.986 144.01 99.2764 148.791Z" fill="white"/>
<path d="M142.317 121.617C144.698 124.725 146 128.09 146 131.603C146 135.856 144.092 139.892 140.67 143.518C148.98 141.56 156.19 139.146 161.949 136.391C162.64 134.834 163 133.234 163 131.603C163 126.254 159.131 121.249 152.4 116.971C149.618 118.65 146.225 120.209 142.317 121.617Z" fill="white"/>
<path d="M33.7538 142.887C30.6947 139.426 29 135.611 29 131.603C29 128.09 30.3019 124.725 32.6832 121.617C29.0157 120.296 25.8021 118.842 23.1212 117.28C16.6857 121.489 13 126.382 13 131.603C13 133.019 13.2713 134.411 13.7952 135.772C19.1662 138.492 25.9264 140.898 33.7538 142.887Z" fill="white"/>
<path fill-rule="evenodd" clip-rule="evenodd" d="M160.777 102C160.852 102.034 160.926 102.068 161 102.102V103.855C161 103.231 160.925 102.612 160.777 102ZM161 104.102V103.855C161 103.937 160.999 104.018 160.996 104.1L161 104.102ZM14 105.855C14 105.582 14.0143 105.311 14.0428 105.04C14.0285 105.047 14.0142 105.054 14 105.062V103.855C14 116.922 46.9071 127.515 87.5 127.515C127.052 127.515 159.308 117.458 160.936 104.855C160.978 105.187 161 105.52 161 105.855C161 117.23 136.063 126.73 102.827 129H72.1731C38.937 126.73 14 117.23 14 105.855ZM14 103.855V103.062L14.0428 103.04C14.0143 103.311 14 103.582 14 103.855Z" fill="#F1F1F1" fill-opacity="0.5"/>
<path fill-rule="evenodd" clip-rule="evenodd" d="M120.894 147.028C127.978 146.129 134.616 144.945 140.67 143.518C144.092 139.892 146 135.856 146 131.603C146 128.09 144.698 124.725 142.317 121.617C137.643 123.3 132.233 124.767 126.248 125.964C126.741 127.787 127 129.672 127 131.603C127 137.286 124.758 142.581 120.894 147.028ZM99.2764 148.791C100.986 144.01 102 138.057 102 131.603C102 130.745 101.982 129.897 101.947 129.058C97.2758 129.358 92.4449 129.515 87.5 129.515C83.2557 129.515 79.0955 129.399 75.0481 129.177C75.0163 129.977 75 130.786 75 131.603C75 138.057 76.014 144.01 77.7236 148.791C81.2557 148.929 84.8521 149 88.5 149C92.1479 149 95.7443 148.929 99.2764 148.791ZM56.1063 147.028C52.242 142.581 50 137.286 50 131.603C50 129.802 50.2251 128.04 50.6556 126.332C43.9117 125.072 37.8475 123.477 32.6832 121.617C30.3019 124.725 29 128.09 29 131.603C29 135.611 30.6947 139.426 33.7538 142.887C40.484 144.598 48.0031 146 56.1063 147.028ZM177 120.469C177 126.365 171.453 131.843 161.949 136.391C162.64 134.834 163 133.234 163 131.603C163 126.254 159.131 121.249 152.4 116.971C157.889 113.657 161 109.873 161 105.855C161 105.231 160.925 104.612 160.777 104C170.995 108.652 177 114.334 177 120.469ZM14 105.855C14 109.998 17.3084 113.893 23.1212 117.28C16.6857 121.489 13 126.382 13 131.603C13 133.019 13.2713 134.411 13.7952 135.772C5.0604 131.35 0 126.1 0 120.469C0 114.784 5.15611 109.488 14.0428 105.04C14.0143 105.311 14 105.582 14 105.855Z" fill="#E24B4B"/>
<path d="M17.0966 18C16.2135 18 15.435 18.579 15.1811 19.4248L6.77327 47.4248C6.38792 48.7081 7.34884 50 8.68878 50H166.311C167.651 50 168.612 48.7081 168.227 47.4248L159.819 19.4248C159.565 18.579 158.786 18 157.903 18H17.0966Z" fill="#FAC02A"/>
<path d="M33.2509 18L26 50H149L141.749 18H33.2509Z" fill="white"/>
<path d="M42.9005 18C42.4199 18 42.0072 18.3419 41.9179 18.8141L36.2243 48.9202C36.1078 49.5361 36.5801 50.106 37.2068 50.106H137.793C138.42 50.106 138.892 49.5361 138.776 48.9202L133.082 18.8141C132.993 18.3419 132.58 18 132.1 18H42.9005Z" fill="white"/>
<path d="M53.4802 18L49 50H125L120.52 18H53.4802Z" fill="#FAC02A"/>
<path d="M74.6506 18L73 50.106H101L99.3494 18H74.6506Z" fill="white"/>
<path d="M42.5169 25.6439C42.4107 25.5592 42.2807 25.5135 42.127 25.5066C41.9767 25.4954 41.8133 25.5279 41.6367 25.6042C41.4557 25.6769 41.2654 25.7929 41.066 25.9523C40.8701 26.1072 40.6751 26.3064 40.4811 26.5497C40.407 26.6425 40.3364 26.7491 40.2695 26.8694C40.1981 26.9862 40.1453 27.1069 40.111 27.2315C40.0802 27.3517 40.0756 27.471 40.097 27.5894C40.1174 27.6998 40.1808 27.7974 40.2869 27.882C40.34 27.9244 40.3962 27.9583 40.4554 27.9838C40.5182 28.0049 40.5893 28.011 40.6689 28.0021C40.7484 27.9931 40.838 27.9669 40.9378 27.9234C41.0367 27.872 41.1466 27.7932 41.2675 27.687L42.5078 26.6353C42.9561 26.2547 43.3683 25.9647 43.7444 25.7653C44.1205 25.5659 44.4712 25.4438 44.7963 25.3991C45.1214 25.3545 45.424 25.3787 45.7043 25.472C45.9881 25.5608 46.256 25.7057 46.5082 25.9068C46.9019 26.2208 47.1729 26.5888 47.3211 27.011C47.4728 27.4287 47.5283 27.8673 47.4875 28.3269C47.4457 28.7785 47.3236 29.2311 47.1211 29.6847C46.9265 30.1374 46.6775 30.554 46.3741 30.9344C46.1766 31.1821 45.9812 31.3954 45.7879 31.5742C45.5982 31.7486 45.4116 31.8964 45.228 32.0177C45.0479 32.1347 44.8713 32.229 44.6982 32.3009C44.5242 32.3648 44.3507 32.4145 44.1776 32.4501L43.2198 33.6511L41.3751 32.1801L42.8727 30.3023L42.9125 30.334C43.0443 30.4319 43.1888 30.482 43.3461 30.4845C43.499 30.4833 43.6562 30.4495 43.8178 30.383C43.9829 30.312 44.1449 30.2133 44.3038 30.0867C44.4582 29.9565 44.6042 29.8052 44.7418 29.6327C45.0593 29.2346 45.2395 28.9043 45.2824 28.6418C45.3209 28.3757 45.2583 28.1774 45.0946 28.0469C44.9663 27.9446 44.8227 27.9024 44.6636 27.9203C44.5002 27.9347 44.302 28.0336 44.069 28.2168L42.7809 29.2739C41.9876 29.9511 41.2495 30.3503 40.5666 30.4715C39.8794 30.5892 39.2526 30.4223 38.6864 29.9707C38.3546 29.7062 38.1155 29.3889 37.9692 29.0189C37.8184 28.6453 37.7537 28.25 37.7752 27.8329C37.7922 27.4122 37.8887 26.9827 38.0648 26.5441C38.2443 26.1011 38.4964 25.6762 38.821 25.2692C39.0432 24.9905 39.2584 24.7569 39.4667 24.5683C39.6705 24.3763 39.8678 24.2152 40.0584 24.085C40.2491 23.9548 40.4332 23.8555 40.6107 23.7872C40.7873 23.711 40.956 23.6537 41.1167 23.6155L42.0375 22.4609L43.8821 23.932L42.5169 25.6439Z" fill="#1293C3"/>
<path d="M52.8009 12.898L56.2369 10.5554L59.88 15.8987L60.7565 15.3011L62.0665 17.2225L58.9881 19.3213L58.5673 18.7042C58.4726 19.0975 58.3007 19.4681 58.0516 19.816C57.8026 20.1638 57.4607 20.4859 57.0259 20.7823C56.6239 21.0564 56.2022 21.2515 55.7608 21.3675C55.3195 21.4835 54.8795 21.5061 54.4409 21.4354C54.0039 21.3567 53.5775 21.1783 53.1619 20.9002C52.7509 20.6188 52.3686 20.2187 52.0148 19.6998L50.4084 17.3437L49.4617 17.9891L48.1518 16.0677L51.3634 13.8781L54.2797 18.1556C54.6112 18.6418 54.9837 18.9219 55.3972 18.9961C55.8075 19.0656 56.2114 18.9649 56.6087 18.694C56.8892 18.5027 57.085 18.2425 57.1962 17.9134C57.3073 17.5843 57.3139 17.2374 57.216 16.8727L55.2749 14.0257L54.1109 14.8194L52.8009 12.898Z" fill="#1293C3"/>
<path d="M72.5099 7.88429C72.3648 7.41391 72.127 7.08462 71.7966 6.89641C71.4645 6.70279 71.093 6.66936 70.6821 6.7961C70.401 6.88283 70.1363 7.03256 69.8881 7.2453C69.6399 7.45804 69.4332 7.77641 69.2679 8.20042L70.2661 11.4363L71.6285 11.016L72.314 13.2381L67.0912 14.8492L66.4057 12.627L67.6385 12.2468L66.4177 8.28914L65.2012 8.66438L64.5158 6.44226L68.3436 5.26151L68.5713 5.99952C68.8377 5.61538 69.1629 5.2782 69.5471 4.98799C69.935 4.69071 70.3695 4.46785 70.8507 4.31943C71.8618 4.00756 72.7279 4.05126 73.4491 4.45051C74.1686 4.84436 74.6959 5.58465 75.0312 6.67138L75.9592 9.68017L77.1514 9.31243L77.8368 11.5346L74.0008 12.7178L72.5099 7.88429Z" fill="#1293C3"/>
<path d="M90.5737 5.94188C90.5737 5.44963 90.4436 5.06489 90.1833 4.78765C89.923 4.50475 89.5779 4.3633 89.1479 4.3633C88.8537 4.3633 88.5566 4.42837 88.2567 4.5585C87.9569 4.68864 87.6655 4.93193 87.3826 5.28838V8.67469H88.8084V11.0001H83.3428V8.67469H84.6328V4.53304H83.3598V2.20761H87.3656V2.97992C87.7334 2.69137 88.1436 2.46505 88.5962 2.30096C89.0545 2.13123 89.5355 2.04635 90.039 2.04635C91.0971 2.04635 91.9118 2.3434 92.4833 2.93749C93.0547 3.52592 93.3404 4.38876 93.3404 5.52602V8.67469H94.588V11.0001H90.5737V5.94188Z" fill="#1293C3"/>
<path d="M103.438 4.22327L107.209 5.38651L105.303 11.5663L106.471 11.9265L105.785 14.1486L100.846 12.6252L101.532 10.403L102.797 10.7933L104.018 6.83564L102.753 6.44539L103.438 4.22327ZM105.409 1.86478C105.471 1.66473 105.563 1.48904 105.687 1.33771C105.818 1.18264 105.968 1.06024 106.138 0.970506C106.307 0.880773 106.491 0.824743 106.687 0.802417C106.889 0.78176 107.092 0.803117 107.298 0.866491C107.492 0.926529 107.665 1.02108 107.814 1.15014C107.964 1.2792 108.084 1.42862 108.173 1.5984C108.263 1.76819 108.318 1.95396 108.339 2.15573C108.361 2.35209 108.342 2.55029 108.28 2.75034C108.218 2.95038 108.122 3.12794 107.991 3.28301C107.862 3.43267 107.713 3.55237 107.543 3.64211C107.373 3.73184 107.19 3.78787 106.994 3.81019C106.797 3.83252 106.602 3.81366 106.407 3.75363C106.202 3.69025 106.021 3.5932 105.866 3.46247C105.717 3.33341 105.597 3.18399 105.507 3.01421C105.418 2.84442 105.362 2.66135 105.339 2.46499C105.324 2.26489 105.347 2.06482 105.409 1.86478Z" fill="#1293C3"/>
<path d="M118.179 16.0454L118.052 16.2771C117.96 16.5226 117.921 16.7662 117.934 17.008C117.952 17.253 118.008 17.4866 118.103 17.7089C118.198 17.9312 118.329 18.1405 118.497 18.3368C118.668 18.5285 118.858 18.696 119.068 18.8394C119.279 18.9829 119.485 19.1066 119.688 19.2108C119.899 19.3134 120.108 19.4042 120.314 19.4833C120.524 19.5576 120.732 19.6241 120.938 19.6828C121.148 19.7367 121.362 19.79 121.579 19.8424L121.37 21.8059C120.992 21.7878 120.651 21.7607 120.347 21.7246C120.051 21.687 119.765 21.6291 119.49 21.5509C119.214 21.4727 118.939 21.3639 118.665 21.2245C118.387 21.0898 118.079 20.9077 117.743 20.6782C117.112 20.248 116.621 19.7626 116.27 19.2223C115.923 18.6773 115.702 18.1124 115.608 17.5276C115.518 16.946 115.547 16.3562 115.694 15.7583C115.846 15.1635 116.104 14.5997 116.467 14.0667C116.831 13.5338 117.263 13.0958 117.764 12.7526C118.27 12.4126 118.809 12.1844 119.381 12.0679C119.957 11.9468 120.547 11.9451 121.152 12.0628C121.756 12.1805 122.344 12.4337 122.914 12.8226C123.484 13.2114 123.924 13.6515 124.232 14.1428C124.549 14.6326 124.745 15.1493 124.819 15.6931C124.897 16.2322 124.863 16.7842 124.717 17.3492C124.575 17.9096 124.334 18.454 123.994 18.9824C123.928 19.1089 123.856 19.2305 123.776 19.3474C123.704 19.4628 123.622 19.5781 123.53 19.6932L118.179 16.0454ZM121.663 14.5374C121.401 14.3589 121.154 14.2387 120.922 14.1766C120.699 14.1131 120.485 14.0944 120.283 14.1205C120.083 14.142 119.898 14.1974 119.728 14.2866C119.557 14.3759 119.399 14.4833 119.251 14.6089L122.288 16.679C122.363 16.4977 122.419 16.3163 122.453 16.1346C122.488 15.9529 122.489 15.7716 122.454 15.5908C122.42 15.41 122.34 15.2318 122.213 15.0563C122.094 14.8793 121.91 14.7063 121.663 14.5374Z" fill="#1293C3"/>
<path d="M135.096 28.736C135.203 28.6514 135.276 28.5349 135.317 28.3865C135.361 28.2425 135.366 28.0759 135.331 27.8868C135.3 27.6941 135.23 27.4828 135.119 27.2529C135.011 27.0274 134.86 26.793 134.666 26.5497C134.592 26.4568 134.504 26.3644 134.402 26.2723C134.304 26.1767 134.198 26.0983 134.084 26.0372C133.974 25.9805 133.858 25.9494 133.738 25.9439C133.626 25.9393 133.517 25.9793 133.411 26.064C133.358 26.1063 133.312 26.1535 133.274 26.2056C133.239 26.2621 133.218 26.3301 133.209 26.4096C133.2 26.4891 133.205 26.5824 133.225 26.6893C133.254 26.7972 133.306 26.9218 133.383 27.0633L134.132 28.5066C134.403 29.0283 134.594 29.4948 134.705 29.9058C134.816 30.3169 134.857 30.6858 134.828 31.0127C134.799 31.3396 134.708 31.6293 134.555 31.8818C134.405 32.1387 134.204 32.3677 133.952 32.5688C133.558 32.8828 133.139 33.065 132.695 33.1156C132.254 33.1706 131.814 33.127 131.375 32.985C130.944 32.8438 130.53 32.624 130.132 32.3256C129.734 32.0352 129.384 31.6998 129.08 31.3193C128.883 31.0716 128.718 30.8337 128.587 30.6055C128.459 30.3817 128.357 30.1668 128.279 29.9608C128.205 29.7593 128.153 29.5661 128.121 29.3814C128.097 29.1975 128.088 29.0173 128.091 28.8406L127.134 27.6395L128.978 26.1685L130.476 28.0463L130.436 28.0781C130.311 28.1848 130.23 28.3146 130.193 28.4674C130.16 28.6166 130.158 28.7775 130.187 28.9498C130.219 29.1266 130.279 29.3065 130.367 29.4896C130.46 29.6691 130.575 29.8451 130.713 30.0176C131.03 30.4157 131.312 30.6649 131.558 30.7651C131.809 30.8618 132.016 30.8449 132.18 30.7144C132.308 30.6121 132.381 30.4814 132.399 30.3224C132.422 30.1599 132.369 29.9446 132.243 29.6767L131.499 28.1857C131.015 27.2616 130.79 26.4532 130.824 25.7605C130.862 25.0642 131.164 24.4903 131.73 24.0388C132.062 23.7742 132.425 23.6117 132.818 23.5514C133.216 23.4875 133.616 23.5124 134.017 23.6261C134.424 23.7363 134.821 23.926 135.21 24.1952C135.601 24.4689 135.96 24.8092 136.284 25.2162C136.506 25.4949 136.686 25.7567 136.824 26.0017C136.966 26.2431 137.079 26.4713 137.163 26.6861C137.248 26.901 137.304 27.1025 137.331 27.2908C137.366 27.4799 137.384 27.6571 137.386 27.8224L138.306 28.9769L136.462 30.448L135.096 28.736Z" fill="#1293C3"/>
</svg>
