<?xml version="1.0" encoding="UTF-8"?>
<svg id="Layer_2" data-name="Layer 2" xmlns="http://www.w3.org/2000/svg" xmlns:xlink="http://www.w3.org/1999/xlink" viewBox="0 0 1340.16 314.99">
  <defs>
    <style>
      .cls-1 {
        fill: url(#linear-gradient);
        stroke-width: 0px;
      }
    </style>
    <linearGradient id="linear-gradient" x1="670.08" y1="314.99" x2="670.08" y2="0" gradientUnits="userSpaceOnUse">
      <stop offset="0" stop-color="#faf9f6"/>
      <stop offset="1" stop-color="#7ec8e3"/>
    </linearGradient>
  </defs>
  <g id="Layer_1-2" data-name="Layer 1">
    <path class="cls-1" d="M1315.33,10c-12.42,0-12.42-10-24.83-10s-12.42,10-24.83,10-12.42-10-24.83-10-12.42,10-24.84,10-12.42-10-24.83-10-12.42,10-24.84,10-12.42-10-24.83-10-12.42,10-24.84,10-12.42-10-24.83-10-12.42,10-24.84,10-12.42-10-24.83-10-12.42,10-24.84,10-12.42-10-24.83-10-12.42,10-24.84,10-12.42-10-24.84-10-12.42,10-24.83,10-12.42-10-24.84-10-12.42,10-24.84,10-12.42-10-24.84-10-12.42,10-24.84,10-12.42-10-24.83-10-12.42,10-24.83,10-12.42-10-24.83-10-12.42,10-24.84,10-12.42-10-24.83-10-12.42,10-24.84,10-12.42-10-24.83-10-12.42,10-24.83,10-12.42-10-24.84-10-12.42,10-24.83,10-12.42-10-24.84-10-12.42,10-24.84,10-12.42-10-24.84-10-12.42,10-24.84,10-12.42-10-24.84-10-12.42,10-24.84,10-12.42-10-24.84-10-12.42,10-24.84,10-12.42-10-24.84-10-12.42,10-24.84,10-12.42-10-24.84-10-12.42,10-24.84,10-12.42-10-24.84-10-12.42,10-24.84,10S210.15,0,197.73,0s-12.42,10-24.84,10S160.48,0,148.06,0s-12.42,10-24.84,10S110.8,0,98.38,0s-12.42,10-24.84,10S61.11,0,48.69,0s-12.42,10-24.85,10S11.42,0,0,0v314.5l1340.16.49V0c-12.42,0-12.42,10-24.83,10Z"/>
  </g>
</svg>