<svg width="1341" height="315" viewBox="0 0 1341 315" fill="none" xmlns="http://www.w3.org/2000/svg">
<path d="M1315.33 10C1302.91 10 1302.91 0 1290.5 0C1278.09 0 1278.08 10 1265.67 10C1253.26 10 1253.25 0 1240.84 0C1228.43 0 1228.42 10 1216 10C1203.58 10 1203.58 0 1191.17 0C1178.76 0 1178.75 10 1166.33 10C1153.91 10 1153.91 0 1141.5 0C1129.09 0 1129.08 10 1116.66 10C1104.24 10 1104.24 0 1091.83 0C1079.42 0 1079.41 10 1066.99 10C1054.57 10 1054.57 0 1042.16 0C1029.75 0 1029.74 10 1017.32 10C1004.9 10 1004.9 0 992.49 0C980.08 0 980.07 10 967.65 10C955.23 10 955.23 0 942.81 0C930.39 0 930.39 10 917.98 10C905.57 10 905.56 0 893.14 0C880.72 0 880.72 10 868.3 10C855.88 10 855.88 0 843.46 0C831.04 0 831.04 10 818.62 10C806.2 10 806.2 0 793.79 0C781.38 0 781.37 10 768.96 10C756.55 10 756.54 0 744.13 0C731.72 0 731.71 10 719.29 10C706.87 10 706.87 0 694.46 0C682.05 0 682.04 10 669.62 10C657.2 10 657.2 0 644.79 0C632.38 0 632.37 10 619.96 10C607.55 10 607.54 0 595.12 0C582.7 0 582.7 10 570.29 10C557.88 10 557.87 0 545.45 0C533.03 0 533.03 10 520.61 10C508.19 10 508.19 0 495.77 0C483.35 0 483.35 10 470.93 10C458.51 10 458.51 0 446.09 0C433.67 0 433.67 10 421.25 10C408.83 10 408.83 0 396.41 0C383.99 0 383.99 10 371.57 10C359.15 10 359.15 0 346.73 0C334.31 0 334.31 10 321.89 10C309.47 10 309.47 0 297.05 0C284.63 0 284.63 10 272.21 10C259.79 10 259.79 0 247.37 0C234.95 0 234.95 10 222.53 10C210.11 10 210.15 0 197.73 0C185.31 0 185.31 10 172.89 10C160.47 10 160.48 0 148.06 0C135.64 0 135.64 10 123.22 10C110.8 10 110.8 0 98.38 0C85.96 0 85.96 10 73.54 10C61.12 10 61.11 0 48.69 0C36.27 0 36.27 10 23.84 10C11.41 10 11.42 0 0 0V314.5L1340.16 314.99V0C1327.74 0 1327.74 10 1315.33 10Z" fill="url(#paint0_linear_153_14)"/>
<defs>
<linearGradient id="paint0_linear_153_14" x1="670.08" y1="0" x2="670.08" y2="314.99" gradientUnits="userSpaceOnUse">
<stop stop-color="#0F2143"/>
<stop offset="1" stop-color="#364961"/>
</linearGradient>
</defs>
</svg>
