<?xml version="1.0" encoding="UTF-8"?>
<svg id="Layer_2" data-name="Layer 2" xmlns="http://www.w3.org/2000/svg" xmlns:xlink="http://www.w3.org/1999/xlink" viewBox="0 0 1271.5 225.13">
  <defs>
    <style>
      .cls-1 {
        fill: url(#linear-gradient);
      }

      .cls-1, .cls-2, .cls-3, .cls-4, .cls-5, .cls-6, .cls-7, .cls-8, .cls-9, .cls-10, .cls-11, .cls-12, .cls-13, .cls-14, .cls-15 {
        stroke-width: 0px;
      }

      .cls-2 {
        fill: #b83b3b;
      }

      .cls-2, .cls-9, .cls-10 {
        fill-rule: evenodd;
      }

      .cls-3 {
        fill: #c69c6d;
      }

      .cls-4 {
        fill: #a4d8d8;
      }

      .cls-5 {
        fill: #8c8c8c;
      }

      .cls-6 {
        fill: #a67c52;
      }

      .cls-7 {
        fill: #999;
      }

      .cls-8 {
        fill: #8c6239;
      }

      .cls-9 {
        fill: url(#linear-gradient-3);
      }

      .cls-10 {
        fill: url(#linear-gradient-4);
      }

      .cls-11 {
        fill: url(#linear-gradient-2);
      }

      .cls-12 {
        fill: #8fbf4c;
      }

      .cls-13 {
        fill: #6A8A3A;
      }

      .cls-14 {
        fill: #7fbdc8;
      }

      .cls-15 {
        fill: #a2c863;
      }
    </style>
    <linearGradient id="linear-gradient" x1="576" y1="1931.5" x2="803.99" y2="1931.5" gradientTransform="translate(0 -1758)" gradientUnits="userSpaceOnUse">
      <stop offset="0" stop-color="beige" stop-opacity=".5"/>
      <stop offset="1" stop-color="beige"/>
    </linearGradient>
    <linearGradient id="linear-gradient-2" x1="513" y1="1771" x2="513" y2="1916" gradientTransform="translate(0 -1758)" gradientUnits="userSpaceOnUse">
      <stop offset="0" stop-color="#e24b4b"/>
      <stop offset="1" stop-color="#b83b3b"/>
    </linearGradient>
    <linearGradient id="linear-gradient-3" x1="513" y1="1788.62" x2="513" y2="1819.85" gradientTransform="translate(0 -1758)" gradientUnits="userSpaceOnUse">
      <stop offset="0" stop-color="#b83b3b"/>
      <stop offset="1" stop-color="#6f181d"/>
    </linearGradient>
    <linearGradient id="linear-gradient-4" x1="513" y1="1758" x2="513" y2="1771" gradientTransform="translate(0 -1758)" gradientUnits="userSpaceOnUse">
      <stop offset="0" stop-color="#fff"/>
      <stop offset="1" stop-color="#d8d8d8"/>
    </linearGradient>
  </defs>
  <g id="Layer_2-2" data-name="Layer 2">
    <g id="Layer_1-2" data-name="Layer 1-2">
      <path class="cls-13" d="M477,225.13s74.5-88.52,208-88.13c112.97.33,125.33,24.85,196,16.5,43.48-5.14,75.4-39.5,127.5-39.5,125,0,263,111.13,263,111.13H477Z"/>
      <g>
        <path class="cls-1" d="M639.18,147.2c-47.01,8.88-80.36,27.19-53.73,34.46,19.43,5.3,18.97,10.96,35.66,15.21,35.75,9.1,118.53,8.55,142.42,3.57,38.09-7.94,36.1-20.34,30.49-27.31-6.71-8.33,15.6-10.92,8.59-15.97-6.9-4.97-23.02-2.7-40.51-5.11-24.09-3.33-67.49-15.32-122.92-4.85h0Z"/>
        <path class="cls-6" d="M787.01,143.52c.02.4.03.79.05,1.19v.17c.01.24.21.47.46.46.24,0,.47-.2.46-.46-.02-.4-.03-.8-.05-1.19v-.17c-.02-.24-.21-.47-.46-.46-.24,0-.47.2-.46.46Z"/>
        <path class="cls-6" d="M765.27,128.13c.21.34.42.68.63,1.02.03.05.06.1.09.14.06.1.16.18.28.21s.26,0,.35-.05c.2-.13.3-.41.16-.63-.21-.34-.42-.68-.63-1.02-.03-.05-.06-.1-.09-.14-.06-.1-.16-.18-.28-.21-.12-.03-.26-.01-.35.05-.21.13-.3.41-.16.63h0Z"/>
        <path class="cls-14" d="M770,172c0,14.36-37.38,26-83.5,26s-83.5-11.64-83.5-26,37.38-26,83.5-26,83.5,11.64,83.5,26Z"/>
        <path class="cls-4" d="M765,171.5c0,14.08-36.27,25.5-81,25.5s-81-11.42-81-25.5,36.27-25.5,81-25.5,81,11.42,81,25.5Z"/>
        <path class="cls-3" d="M776.86,164.09h.18c1.61-11.17,0-23.78-4.31-34.11-1.09-2.56-2.37-5.04-3.87-7.38,6.06,12.92,8.38,27.29,8.01,41.49h-.01Z"/>
        <path class="cls-3" d="M784.04,169.6c1.31-3.05,2.14-6.28,2.8-9.53.65-3.42,1.04-6.89,1.08-10.37-.97,6.61-2.1,13.48-3.95,19.9h.07Z"/>
        <path class="cls-5" d="M599.97,165.5l-6.47-9.43-7.02-.31-2.14,2.75-2.14.9-3.57,10.37,2.81.8h10.96s7.57-5.09,7.57-5.09h0Z"/>
        <path class="cls-5" d="M614.2,156.96l-3.75-3.66h-4.28s-3.17,4.67-3.17,4.67l6.95,1.01,4.25-2.02h0Z"/>
        <path class="cls-7" d="M609.32,155.14l-3.36-.92.21-.92h4.28s-1.13,1.84-1.13,1.84h0Z"/>
        <path class="cls-7" d="M592.58,157.58l3.66,2.45,3.72,5.46-7.57,5.09.19-13h0Z"/>
        <path class="cls-5" d="M604.1,162.53l-6.87-1.03,1.44,4.85,5.77-.81,1.38-1.13-1.72-1.88h0Z"/>
        <path class="cls-7" d="M597.23,161.5l6.87,1.03-2.24.94-4.63-1.97Z"/>
        <path class="cls-3" d="M776.93,164.09c.29-7.52-1.14-15.11-3.86-22.11l-.38-.99s-.44-.97-.45-.97c-.66-1.53-1.61-3.29-2.44-4.73-.56-.86-1.18-1.82-1.76-2.66.6,1.26,1.33,2.51,1.88,3.79,4.03,8.67,6.15,18.16,6.9,27.68h.11Z"/>
        <path class="cls-12" d="M777.48,164.09c3.61-7.23,6.3-19.43,4.46-26.76-1.47,4.55-2.77,9.14-3.7,13.83-.83,4.28-1.51,8.54-1.51,12.93h.75Z"/>
        <path class="cls-12" d="M777.38,164.09c1.01-2.79,1.4-5.76,1.58-8.71.14-3.39-.06-6.81-.99-10.1-.52,3.32-.65,6.67-.83,10.01-.14,2.95-.27,5.84-.25,8.8h.5-.01Z"/>
        <path class="cls-12" d="M775.03,164.09h.69c.32-5.34-3.16-11.57-7.34-14.42l-.12.09c.84,1.23,1.68,2.45,2.43,3.73,1.86,3.19,3.45,6.6,4.25,10.22.03.12.05.25.08.38h.01Z"/>
        <path class="cls-12" d="M784.15,169.6c2.43-1.55,4.71-5.22,3.44-7.95-.89,2.92-2.73,5.15-3.85,7.95h.41Z"/>
        <path class="cls-8" d="M770.39,121.73c-1.02-1.94-2.04-3.88-3.05-5.81-1.1-2.09-4.26-.24-3.16,1.85,1.02,1.93,2.04,3.87,3.05,5.81,1.1,2.09,4.26.24,3.16-1.85Z"/>
        <path class="cls-8" d="M770.13,132.89c-.75-1.36-1.5-2.71-2.25-4.07-.95-1.72-3.59-.18-2.64,1.54.75,1.36,1.5,2.72,2.25,4.07.95,1.72,3.59.18,2.64-1.54Z"/>
        <path class="cls-8" d="M786.08,145.33c.05,1.32.09,2.65.14,3.97.07,1.96,3.12,1.97,3.05,0-.04-1.32-.09-2.65-.14-3.97-.07-1.96-3.12-1.97-3.05,0Z"/>
      </g>
      <path class="cls-2" d="M513,13h-26l-17,146h86l-17-146h-26Z"/>
      <path class="cls-11" d="M495.62,13l-11.62,145h58l-11.62-145h-34.76Z"/>
      <path class="cls-9" d="M525,42.71v19.14h-24v-19.14c0-6.68,5.37-12.09,12-12.09s12,5.41,12,12.09Z"/>
      <path class="cls-10" d="M495.5,4.65l17.5-4.65,17.5,4.65,8.5,8.35h-52s8.5-8.35,8.5-8.35Z"/>
      <path class="cls-15" d="M0,225S66.5,80.63,168,86.15c101.5,5.53,120.34,73.11,191.5,73.11,35,0,51.5-34.41,94-34.41,78.5,0,216.5,100.14,216.5,100.14H0Z"/>
    </g>
  </g>
</svg>