<?xml version="1.0" encoding="UTF-8"?>
<svg id="Layer_2" data-name="Layer 2" xmlns="http://www.w3.org/2000/svg" xmlns:xlink="http://www.w3.org/1999/xlink" viewBox="0 0 966.35 199.47">
  <defs>
    <style>
      .cls-1 {
        fill: #e24b4b;
      }

      .cls-1, .cls-2, .cls-3, .cls-4, .cls-5, .cls-6, .cls-7, .cls-8, .cls-9, .cls-10, .cls-11, .cls-12, .cls-13 {
        stroke-width: 0px;
      }

      .cls-1, .cls-9 {
        fill-rule: evenodd;
      }

      .cls-2 {
        fill: white;
      }

      .cls-3 {
        fill: #c69c6d;
      }

      .cls-4 {
        fill: #a4d8d8;
      }

      .cls-5 {
        fill: #8c8c8c;
      }

      .cls-6 {
        fill: #a67c52;
      }

      .cls-7 {
        fill: #999;
      }

      .cls-8 {
        fill: #8c6239;
      }

      .cls-9 {
        fill: url(#linear-gradient-2);
      }

      .cls-10 {
        fill: #5b894c;
      }

      .cls-11 {
        fill: #81bf6a;
      }

      .cls-12 {
        fill: #44934c;
      }

      .cls-13 {
        fill: #7fbdc8;
      }
    </style>
    <linearGradient id="linear-gradient" x1="435.27" y1="151.42" x2="663.26" y2="151.42" gradientUnits="userSpaceOnUse">
      <stop offset="0" stop-color="white" stop-opacity=".9"/>
      <stop offset="1" stop-color="white" stop-opacity=".5"/>
    </linearGradient>
    <linearGradient id="linear-gradient-2" x1="361.64" y1="1787.83" x2="361.64" y2="1819.06" gradientTransform="translate(0 -1758)" gradientUnits="userSpaceOnUse">
      <stop offset="0" stop-color="#b83b3b"/>
      <stop offset="1" stop-color="#6f181d"/>
    </linearGradient>
  </defs>
  <g id="Layer_2-2" data-name="Layer 2">
    <path class="cls-10" d="M337.64,199.47s74.5-88.13,208-88.13c107.94,0,212.41,53.96,249.81,53.96,29.77,0,36.93-10.69,65.17-7.59,49.04,5.38,105.73,41.76,105.73,41.76H337.64Z"/>
    <g>
      <path class="cls-2" d="M498.45,125.12c-47.01,8.88-80.36,27.19-53.73,34.46,19.43,5.3,18.97,10.96,35.66,15.21,35.75,9.1,118.53,8.55,142.42,3.57,38.09-7.94,36.1-20.34,30.49-27.31-6.71-8.33,15.6-10.92,8.59-15.97-6.9-4.97-23.02-2.7-40.51-5.11-24.09-3.33-67.49-15.32-122.92-4.85h0Z"/>
      <path class="cls-6" d="M646.28,121.44c.02.4.03.79.05,1.19v.17c.01.24.21.47.46.46.24,0,.47-.2.46-.46-.02-.4-.03-.8-.05-1.19v-.17c-.02-.24-.21-.47-.46-.46-.24,0-.47.2-.46.46Z"/>
      <path class="cls-6" d="M624.54,106.05c.21.34.42.68.63,1.02.03.05.06.1.09.14.06.1.16.18.28.21s.26,0,.35-.05c.2-.13.3-.41.16-.63-.21-.34-.42-.68-.63-1.02-.03-.05-.06-.1-.09-.14-.06-.1-.16-.18-.28-.21-.12-.03-.26-.01-.35.05-.21.13-.3.41-.16.63h0Z"/>
      <path class="cls-13" d="M629.27,149.92c0,14.36-37.38,26-83.5,26s-83.5-11.64-83.5-26,37.38-26,83.5-26,83.5,11.64,83.5,26Z"/>
      <path class="cls-4" d="M624.27,149.42c0,14.08-36.27,25.5-81,25.5s-81-11.42-81-25.5,36.27-25.5,81-25.5,81,11.42,81,25.5Z"/>
      <path class="cls-3" d="M636.13,142.01h.18c1.61-11.17,0-23.78-4.31-34.11-1.09-2.56-2.37-5.04-3.87-7.38,6.06,12.92,8.38,27.29,8.01,41.49h-.01Z"/>
      <path class="cls-3" d="M643.31,147.52c1.31-3.05,2.14-6.28,2.8-9.53.65-3.42,1.04-6.89,1.08-10.37-.97,6.61-2.1,13.48-3.95,19.9h.07Z"/>
      <path class="cls-5" d="M459.24,143.42l-6.47-9.43-7.02-.31-2.14,2.75-2.14.9-3.57,10.37,2.81.8h10.96s7.57-5.09,7.57-5.09h0Z"/>
      <path class="cls-5" d="M473.47,134.88l-3.75-3.66h-4.28s-3.17,4.67-3.17,4.67l6.95,1.01,4.25-2.02h0Z"/>
      <path class="cls-7" d="M468.59,133.06l-3.36-.92.21-.92h4.28s-1.13,1.84-1.13,1.84h0Z"/>
      <path class="cls-7" d="M451.85,135.51l3.66,2.45,3.72,5.46-7.57,5.09.19-13h0Z"/>
      <path class="cls-5" d="M463.37,140.46l-6.87-1.03,1.44,4.85,5.77-.81,1.38-1.13-1.72-1.88h0Z"/>
      <path class="cls-7" d="M456.5,139.43l6.87,1.03-2.24.94-4.63-1.97Z"/>
      <path class="cls-3" d="M636.2,142.01c.29-7.52-1.14-15.11-3.86-22.11l-.38-.99s-.44-.97-.45-.97c-.66-1.53-1.61-3.29-2.44-4.73-.56-.86-1.18-1.82-1.76-2.66.6,1.26,1.33,2.51,1.88,3.79,4.03,8.67,6.15,18.16,6.9,27.68h.11Z"/>
      <path class="cls-12" d="M636.75,142.01c3.61-7.23,6.3-19.43,4.46-26.76-1.47,4.55-2.77,9.14-3.7,13.83-.83,4.28-1.51,8.54-1.51,12.93h.75Z"/>
      <path class="cls-12" d="M636.65,142.01c1.01-2.79,1.4-5.76,1.58-8.71.14-3.39-.06-6.81-.99-10.1-.52,3.32-.65,6.67-.83,10.01-.14,2.95-.27,5.84-.25,8.8h.5-.01Z"/>
      <path class="cls-12" d="M634.3,142.01h.69c.32-5.34-3.16-11.57-7.34-14.42l-.12.09c.84,1.23,1.68,2.45,2.43,3.73,1.86,3.19,3.45,6.6,4.25,10.22.03.12.05.25.08.38h.01Z"/>
      <path class="cls-12" d="M643.42,147.52c2.43-1.55,4.71-5.22,3.44-7.95-.89,2.92-2.73,5.15-3.85,7.95h.41Z"/>
      <path class="cls-8" d="M629.66,99.65c-1.02-1.94-2.04-3.88-3.05-5.81-1.1-2.09-4.26-.24-3.16,1.85,1.02,1.93,2.04,3.87,3.05,5.81,1.1,2.09,4.26.24,3.16-1.85Z"/>
      <path class="cls-8" d="M629.4,110.81c-.75-1.36-1.5-2.71-2.25-4.07-.95-1.72-3.59-.18-2.64,1.54.75,1.36,1.5,2.72,2.25,4.07.95,1.72,3.59.18,2.64-1.54Z"/>
      <path class="cls-8" d="M645.35,123.25c.05,1.32.09,2.65.14,3.97.07,1.96,3.12,1.97,3.05,0-.04-1.32-.09-2.65-.14-3.97-.07-1.96-3.12-1.97-3.05,0Z"/>
    </g>
    <path class="cls-1" d="M361.64,0c-16.56,0-26,12.21-26,12.21l-17,146h86l-17-146s-9.44-12.21-26-12.21Z"/>
    <path class="cls-9" d="M373.64,41.92v19.14h-24v-19.14c0-6.68,5.37-12.09,12-12.09s12,5.41,12,12.09Z"/>
    <path class="cls-11" d="M0,199.34s57.03-58.46,108.11-58.46c39.5,0,51.08,14.63,81.73,14.63,55.3,0,61.94-43.83,122.98-43.83,78.5,0,217.82,87.66,217.82,87.66H0Z"/>
  </g>
</svg>