<?xml version="1.0" encoding="UTF-8"?>
<svg id="Layer_2" data-name="Layer 2" xmlns="http://www.w3.org/2000/svg" viewBox="0 0 274.3 274.3">
  <defs>
    <style>
      .cls-1 {
        fill: #F9D67A;
      }

      .cls-1, .cls-2 {
        stroke-width: 0px;
      }

      .cls-2 {
        fill: #262626;
      }
    </style>
  </defs>
  <g id="Layer_1-2" data-name="Layer 1">
    <g>
      <path class="cls-2" d="M274.28,140.07c.41-19.03-7.46-36.32-20.3-48.42,1.27-17.6-4.63-35.65-17.8-49.4-13.17-13.75-30.96-20.41-48.6-19.89C176.04,9.02,159.1.42,140.07.01c-19.03-.41-36.32,7.46-48.42,20.3-17.6-1.27-35.65,4.63-49.4,17.8-13.75,13.17-20.4,30.95-19.89,48.59C9.02,98.26.42,115.19.01,134.22c-.41,19.03,7.46,36.32,20.3,48.42-1.27,17.6,4.62,35.66,17.8,49.4,13.17,13.74,30.95,20.4,48.59,19.89,11.55,13.34,28.48,21.94,47.52,22.35,19.03.41,36.32-7.46,48.42-20.3,17.6,1.27,35.66-4.62,49.4-17.8,13.75-13.17,20.41-30.96,19.89-48.6,13.34-11.55,21.94-28.48,22.35-47.52ZM140.27,145.17c-1.09-.08-2.19-.13-3.3-.15-1.1-.02-2.2-.02-3.29.01-.72-.83-1.46-1.64-2.22-2.44-.76-.8-1.55-1.57-2.34-2.32.08-1.09.13-2.19.15-3.3.02-1.1.02-2.2-.01-3.29.83-.72,1.64-1.45,2.44-2.22.8-.76,1.57-1.55,2.32-2.34,1.09.08,2.19.13,3.29.15,1.11.02,2.2.02,3.3-.01.72.83,1.45,1.64,2.22,2.44.76.8,1.55,1.57,2.34,2.32-.08,1.09-.13,2.19-.15,3.29-.02,1.11-.02,2.2.01,3.3-.83.72-1.64,1.46-2.44,2.22-.8.76-1.57,1.55-2.32,2.34Z"/>
      <circle class="cls-1" cx="137.15" cy="137.15" r="74.07"/>
    </g>
  </g>
</svg>