<?xml version="1.0" encoding="UTF-8"?>
<svg id="Layer_2" data-name="Layer 2" xmlns="http://www.w3.org/2000/svg" xmlns:xlink="http://www.w3.org/1999/xlink" viewBox="0 0 518.31 404.1">
  <defs>
    <style>
      .cls-1 {
        fill: #e24b4b;
      }

      .cls-1, .cls-2, .cls-3, .cls-4, .cls-5, .cls-6, .cls-7, .cls-8, .cls-9 {
        stroke-width: 0px;
      }

      .cls-2 {
        fill: #ffe876;
      }

      .cls-3 {
        fill: #262626;
      }

      .cls-4 {
        fill: url(#linear-gradient);
      }

      .cls-5 {
        fill: #000;
      }

      .cls-10 {
        stroke: #666;
        stroke-width: 3px;
      }

      .cls-10, .cls-11 {
        fill: none;
        stroke-miterlimit: 10;
      }

      .cls-11 {
        stroke: #333;
        stroke-width: 8px;
      }

      .cls-6 {
        fill: gray;
      }

      .cls-7 {
        fill: #ffa607;
      }

      .cls-8 {
        fill: #b83b3b;
      }

      .cls-9 {
        fill: #d81c23;
      }
    </style>
    <linearGradient id="linear-gradient" x1="185.85" y1="126.49" x2="360.17" y2="126.49" gradientTransform="translate(0 214.8) scale(1 -1)" gradientUnits="userSpaceOnUse">
      <stop offset="0" stop-color="#f9c54b" stop-opacity="0"/>
      <stop offset="1" stop-color="#f9c54b" stop-opacity=".8"/>
    </linearGradient>
  </defs>
  <g id="Layer_1-2" data-name="Layer 1">
    <g id="Layer_2-2" data-name="Layer 2-2">
      <path class="cls-2" d="M351.1,54.01l-11.12,10.33s-30.18-4.77-47.66-4.77c-14.32,0-27.01,3.18-27.01,3.18,0,0,4.77-8.74,4.77-23.03,0-20.8-15.89-39.71-42.1-39.71-17.47,0-41.01,16.56-41.8,43.57-.49,16.67,5.43,28.09,4.92,29.87-2.47,8.6-4.96,19.48-5.22,29.02-.56,20.27,4.28,31.5,15.89,45.27,12.71,15.09,36.54,28.59,72.96,28.88.61,0,1.22,0,1.82,0,1.54-.02,3.07-.09,4.59-.19,9.51-.67,12.77-15.38,21.24-19.01,7.25-3.11,21.91-6.11,28-11,20.9-16.77,31.89-31.61,29.44-59.82-1.59-18.27-8.74-32.57-8.74-32.57h0Z"/>
      <path class="cls-4" d="M351.1,54.01l-11.12,10.33s-30.18-4.77-47.66-4.77c-14.32,0-27.01,3.18-27.01,3.18,0,0,4.77-8.74,4.77-23.03,0-20.8-15.89-39.71-42.1-39.71-17.47,0-41.01,16.56-41.8,43.57-.49,16.67,5.43,28.09,4.92,29.87-2.47,8.6-4.96,19.48-5.22,29.02-.56,20.27,4.28,31.5,15.89,45.27,12.71,15.09,36.54,28.59,72.96,28.88.61,0,1.22,0,1.82,0,1.54-.02,3.07-.09,4.59-.19,9.51-.67,12.77-15.38,21.24-19.01,7.25-3.11,21.91-6.11,28-11,20.9-16.77,31.89-31.61,29.44-59.82-1.59-18.27-8.74-32.57-8.74-32.57h0Z"/>
      <path class="cls-7" d="M254.26,47.31l-16.39-7.51-16.39,7.51c-3.99,1.83-2.63,5.69,1.07,7.91,4.13,2.48,11.75,4.85,15.32,4.85,3.76,0,11.19-2.37,15.32-4.85,3.7-2.22,5.05-6.09,1.07-7.91Z"/>
      <path class="cls-5" d="M262.08,35.75c-.77,2.91-3.74,4.64-6.65,3.87s-4.64-3.74-3.87-6.64c0,0,10.52,2.77,10.52,2.77Z"/>
      <path class="cls-5" d="M213.55,35.44c.77,2.91,3.74,4.64,6.65,3.87s4.64-3.74,3.87-6.64c0,0-10.52,2.77-10.52,2.77Z"/>
    </g>
    <path class="cls-1" d="M369.39,137.4l-27.98,3.59,16.28-76.2c2.47-11.54,13.82-18.9,25.37-16.44h0c3,.64,4.91,3.59,4.27,6.59l-17.94,82.46Z"/>
    <g>
      <line class="cls-10" x1="148.62" y1="101.29" x2="175.89" y2="118.9"/>
      <line class="cls-10" x1="186.89" y1="97.9" x2="175.89" y2="122.9"/>
      <line class="cls-10" x1="208.17" y1="128.11" x2="177.89" y2="119.9"/>
      <path class="cls-11" d="M208.07,128.24c-4.84,9.19-22.05,10.64-38.43,3.24-16.38-7.4-25.73-20.85-20.89-30.04,4.84-9.19,22.05-10.64,38.43-3.24,16.38,7.4,25.73,20.85,20.89,30.04Z"/>
    </g>
    <path class="cls-9" d="M170.02,118.03h0c2.48,0,4.5,2.02,4.5,4.5v43.5h-9v-43.5c0-2.48,2.02-4.5,4.5-4.5Z" transform="translate(50.58 -44.55) rotate(17.5)"/>
    <g>
      <circle class="cls-3" cx="58.04" cy="346.06" r="58.04" transform="translate(-23.12 4.68) rotate(-3.85)"/>
      <circle class="cls-6" cx="58.04" cy="346.06" r="9.65" transform="translate(-276.15 239.06) rotate(-62.72)"/>
    </g>
    <path class="cls-1" d="M246.92,262.41c0-28.72,9.64-55.19,25.84-76.35l-.12-15.19-103.25-24.47-110.23-.08c-14.19,0-24.92,12.85-22.39,26.81l20.88,115.27h146.69l15.53-21.26,27.14-.27c-.05-1.48-.09-2.97-.09-4.46Z"/>
    <path class="cls-8" d="M253.89,235.63c14.2-52.34,62.04-90.84,118.87-90.84s104.67,38.5,118.87,90.84h26.68c-14.77-66.79-74.32-116.75-145.55-116.75s-130.78,49.96-145.55,116.75h26.68Z"/>
  </g>
</svg>