<svg width="28" height="28" viewBox="0 0 28 28" fill="none" xmlns="http://www.w3.org/2000/svg">
<path d="M9.60536 26.2236H6.73691C3.5685 26.2236 1 23.6551 1 20.4867V11.462C1 9.45589 2.04786 7.59552 3.76346 6.55576L10.9346 2.20963C12.7622 1.102 15.0539 1.102 16.8815 2.20963L24.0526 6.55576C25.7682 7.59552 26.8161 9.45589 26.8161 11.462V20.4867C26.8161 23.6551 24.2475 26.2236 21.0792 26.2236H18.2107M9.60536 26.2236V20.4867C9.60536 18.1103 11.5317 16.184 13.908 16.184C16.2844 16.184 18.2107 18.1103 18.2107 20.4867V26.2236M9.60536 26.2236H18.2107" stroke="white" stroke-width="2" stroke-linecap="round" stroke-linejoin="round"/>
</svg>
