<svg width="28" height="28" viewBox="0 0 28 28" fill="none" xmlns="http://www.w3.org/2000/svg">
<path d="M13.8105 17.6537C15.9331 17.6537 17.6537 15.9332 17.6537 13.8106C17.6537 11.688 15.9331 9.96741 13.8105 9.96741C11.688 9.96741 9.96738 11.688 9.96738 13.8106C9.96738 15.9332 11.688 17.6537 13.8105 17.6537Z" stroke="white" stroke-width="2" stroke-linecap="round" stroke-linejoin="round"/>
<path d="M23.5753 11.755L22.1691 8.35941L24.059 6.12422L21.4969 3.56211L19.2739 5.46185L15.8062 4.03577L15.0087 1H12.5052L11.6957 4.07598L8.30767 5.50414L6.12422 3.56211L3.56211 6.12422L5.42396 8.41584L4.03931 11.8202L1 12.5295V15.0916L4.07596 15.9313L5.50387 19.3187L3.56211 21.4969L6.12422 24.059L8.4188 22.189L11.757 23.5623L12.5295 26.6211H15.0916L15.866 23.5635L19.2616 22.1573C19.8276 22.5618 21.4969 24.059 21.4969 24.059L24.059 21.4969L22.1578 19.2543L23.5644 15.8577L26.621 15.0624L26.6211 12.5295L23.5753 11.755Z" stroke="white" stroke-width="2" stroke-linecap="round" stroke-linejoin="round"/>
</svg>
