<svg width="25" height="27" viewBox="0 0 25 27" fill="none" xmlns="http://www.w3.org/2000/svg">
<path d="M19.7501 25.9999C21.8212 25.9999 23.5001 24.321 23.5001 22.2499C23.5001 20.1788 21.8212 18.4999 19.7501 18.4999C17.6789 18.4999 16.0001 20.1788 16.0001 22.2499C16.0001 24.321 17.6789 25.9999 19.7501 25.9999Z" stroke="white" stroke-width="2" stroke-linecap="round" stroke-linejoin="round"/>
<path d="M19.7501 8.50003C21.8212 8.50003 23.5001 6.82108 23.5001 4.75001C23.5001 2.67894 21.8212 1 19.7501 1C17.6789 1 16.0001 2.67894 16.0001 4.75001C16.0001 6.82108 17.6789 8.50003 19.7501 8.50003Z" stroke="white" stroke-width="2" stroke-linecap="round" stroke-linejoin="round"/>
<path d="M4.75001 17.25C6.82108 17.25 8.50003 15.5711 8.50003 13.5C8.50003 11.4289 6.82108 9.75 4.75001 9.75C2.67894 9.75 1 11.4289 1 13.5C1 15.5711 2.67894 17.25 4.75001 17.25Z" stroke="white" stroke-width="2" stroke-linecap="round" stroke-linejoin="round"/>
<path d="M16.625 6.62512L7.875 11.6251" stroke="white" stroke-width="2"/>
<path d="M7.875 15.3749L16.625 20.3749" stroke="white" stroke-width="2"/>
</svg>
