<svg width="26" height="26" viewBox="0 0 26 26" fill="none" xmlns="http://www.w3.org/2000/svg">
<path fill-rule="evenodd" clip-rule="evenodd" d="M12.2911 10.2975C12.682 10.6904 13.318 10.6904 13.7089 10.2975L21.2559 2.71244C21.6469 2.31955 22.2828 2.31955 22.6737 2.71244L23.1881 3.22943C23.5763 3.61955 23.5763 4.24998 23.1881 4.64009L15.6269 12.2393C15.2387 12.6295 15.2387 13.2599 15.6269 13.65L23.2982 21.3599C23.6864 21.75 23.6864 22.3805 23.2982 22.7706L22.7838 23.2876C22.3929 23.6804 21.757 23.6804 21.366 23.2876L13.7089 15.5919C13.318 15.199 12.682 15.199 12.2911 15.5919L4.63396 23.2876C4.24303 23.6804 3.60713 23.6804 3.2162 23.2876L2.7018 22.7706C2.31364 22.3805 2.31364 21.75 2.7018 21.3599L10.3731 13.65C10.7613 13.2599 10.7613 12.6295 10.3731 12.2393L2.8119 4.64009C2.42374 4.24998 2.42373 3.61955 2.8119 3.22943L3.3263 2.71244C3.71723 2.31955 4.35313 2.31955 4.74406 2.71244L12.2911 10.2975Z" fill="#E24B4B"/>
</svg>
