<svg width="235" height="212" viewBox="0 0 235 212" fill="none" xmlns="http://www.w3.org/2000/svg">
<path fill-rule="evenodd" clip-rule="evenodd" d="M28.9096 69.6026C28.9096 69.6026 24.2313 80.981 20.4887 95.1837H39.9503V127.303C42.0914 126.278 44.2936 125.489 46.5522 124.937C48.8152 124.385 51.1347 124.109 53.5152 124.109C58.0759 124.109 62.3016 124.957 66.1879 126.652C70.0741 128.348 73.4251 130.655 76.2451 133.573C79.0608 136.491 81.2628 139.902 82.8469 143.807C84.4745 147.71 85.2883 151.851 85.2883 156.228C85.2883 160.645 84.4919 164.805 82.9078 168.709C81.3585 172.613 79.1782 176.024 76.3626 178.943C73.5469 181.821 70.1959 184.109 66.3053 185.804C62.4191 187.46 58.1543 188.288 53.5152 188.288C51.2261 188.288 49.0414 188.09 46.9525 187.694C64.2643 201.215 90.8413 211.733 127.623 212H129.921C131.88 212 133.79 211.876 135.701 211.751C147.642 210.964 159.153 208.186 169.789 203.833C178.91 200.102 187.423 195.169 195.108 189.324L195.765 188.82C190.56 188.781 185.921 187.913 181.852 186.218C177.687 184.444 174.176 182.058 171.321 179.061C168.505 176.064 166.342 172.554 164.836 168.532C163.37 164.509 162.634 160.251 162.634 155.755C162.634 151.259 163.409 147.04 164.954 143.097C166.542 139.153 168.762 135.722 171.621 132.804C174.476 129.847 177.888 127.52 181.852 125.824C185.821 124.129 190.221 123.281 195.06 123.281C199.9 123.281 204.186 124.089 207.911 125.706C211.68 127.284 214.853 129.492 217.433 132.331C220.01 135.131 221.994 138.443 223.382 142.268C224.553 145.465 225.275 148.872 225.541 152.489C232.752 137.715 236.194 121.152 234.628 103.969C232.63 82.0392 223.644 64.8768 223.644 64.8768L209.656 77.2718C209.656 77.2718 171.704 71.5513 149.727 71.5513C131.706 71.5513 115.765 75.3651 115.765 75.3651C115.765 75.3651 121.757 64.8768 121.757 47.7147C121.757 22.7172 101.782 0 68.8643 0C46.8873 0 26.9121 16.2088 28.3004 35.3195C27.9087 35.2366 27.4735 35.1952 27.0427 35.1952C23.3914 35.1952 20.4409 38.0142 20.4409 41.4962C20.4409 42.3251 20.6149 43.1545 20.9152 43.9009L2.63291 53.1865C-1.71027 55.3835 -0.230611 60.0267 3.80794 62.6797C9.93104 66.7424 28.9096 69.6026 28.9096 69.6026ZM15.9236 122.996C16.028 119.248 16.4327 115.329 17.0376 111.391H21.6811V156.651C17.3379 147.245 15.5276 136.891 15.9236 122.996ZM221.202 160.428C219.361 163.457 217.359 166.394 215.205 169.226L215.053 168.946C213.586 169.498 212.137 170.03 210.71 170.543C209.282 171.016 207.816 171.45 206.306 171.845C204.8 172.199 203.233 172.495 201.605 172.732C200.021 172.929 198.333 173.027 196.549 173.027C194.764 173.027 192.997 172.811 191.252 172.377C189.507 171.903 187.923 171.213 186.496 170.307C185.064 169.399 183.815 168.276 182.744 166.935C181.713 165.594 180.982 164.037 180.542 162.262L180.364 160.428H221.202ZM50.6865 39.7551C46.9177 39.7441 43.8497 36.8463 43.8497 33.2053H57.5276C57.5276 36.8052 54.4987 39.7442 50.6865 39.7551ZM194.586 138.069C192.362 138.069 190.46 138.345 188.872 138.897C187.327 139.409 186.017 140.139 184.946 141.086C183.876 141.992 183.023 143.037 182.388 144.221C181.752 145.403 181.256 146.646 180.899 147.947H206.662C206.384 146.606 205.988 145.345 205.474 144.161C204.956 142.978 204.243 141.933 203.333 141.026C202.419 140.119 201.249 139.409 199.821 138.897C198.433 138.345 196.688 138.069 194.586 138.069ZM109.977 162.262L109.798 160.428H155.197C155.275 159.403 155.297 158.417 155.258 157.471C155.258 156.485 155.197 155.499 155.08 154.513C154.958 150.136 154.205 146.054 152.816 142.268C151.428 138.443 149.444 135.131 146.867 132.331C144.291 129.492 141.114 127.284 137.35 125.706C133.62 124.089 129.334 123.281 124.494 123.281C119.655 123.281 115.255 124.129 111.286 125.824C107.322 127.52 103.91 129.847 101.055 132.804C98.196 135.722 95.9765 139.153 94.3881 143.097C92.8432 147.04 92.0686 151.259 92.0686 155.755C92.0686 160.251 92.804 164.509 94.2706 168.532C95.7764 172.554 97.9392 176.064 100.755 179.061C103.614 182.058 107.122 184.444 111.286 186.218C115.451 187.954 120.212 188.821 125.569 188.821C128.424 188.821 130.922 188.663 133.063 188.348C135.204 188.072 137.228 187.618 139.134 186.987C141.036 186.356 142.92 185.567 144.787 184.621C146.689 183.635 148.774 182.452 151.032 181.072L144.487 168.946C143.02 169.498 141.571 170.03 140.144 170.543C138.716 171.016 137.25 171.45 135.74 171.845C134.234 172.199 132.667 172.495 131.04 172.732C129.456 172.929 127.767 173.027 125.983 173.027C124.199 173.027 122.432 172.811 120.687 172.377C118.941 171.903 117.357 171.213 115.93 170.307C114.503 169.399 113.249 168.276 112.179 166.935C111.147 165.594 110.416 164.037 109.977 162.262ZM118.31 138.897C119.895 138.345 121.801 138.069 124.02 138.069C126.122 138.069 127.867 138.345 129.255 138.897C130.683 139.409 131.853 140.119 132.767 141.026C133.677 141.933 134.395 142.978 134.909 144.161C135.422 145.345 135.822 146.606 136.097 147.947H110.338C110.695 146.646 111.186 145.403 111.822 144.221C112.457 143.037 113.31 141.992 114.381 141.086C115.451 140.139 116.761 139.409 118.31 138.897ZM52.2662 140.435C49.6463 140.435 47.2876 141.026 45.1856 142.209C43.1229 143.392 41.3777 145.088 39.9503 147.296V165.633C41.2167 167.526 42.9053 169.064 45.0072 170.247C47.1483 171.391 49.5288 171.963 52.1443 171.963C54.1679 171.963 56.0915 171.608 57.9193 170.898C59.7428 170.149 61.3268 169.104 62.6759 167.763C64.0641 166.383 65.1565 164.746 65.9485 162.853C66.7449 160.921 67.1409 158.752 67.1409 156.347C67.1409 153.902 66.7449 151.693 65.9485 149.722C65.1565 147.75 64.0859 146.074 62.7368 144.694C61.3877 143.313 59.8037 142.268 57.9759 141.559C56.1916 140.81 54.2898 140.435 52.2662 140.435Z" fill="black"/>
</svg>
