<svg width="281" height="51" viewBox="0 0 281 51" fill="none" xmlns="http://www.w3.org/2000/svg">
<path fill-rule="evenodd" clip-rule="evenodd" d="M233.643 16.5874C233.643 16.5874 232.568 19.2173 231.708 22.5H236.18V29.9238C236.672 29.6868 237.178 29.5046 237.697 29.377C238.217 29.2493 238.75 29.1855 239.297 29.1855C240.345 29.1855 241.316 29.3815 242.209 29.7734C243.102 30.1654 243.872 30.6986 244.52 31.373C245.167 32.0475 245.673 32.8359 246.037 33.7383C246.411 34.6406 246.598 35.5977 246.598 36.6094C246.598 37.6302 246.415 38.5918 246.051 39.4941C245.695 40.3965 245.194 41.1849 244.547 41.8594C243.9 42.5247 243.13 43.0534 242.236 43.4453C241.343 43.8281 240.363 44.0195 239.297 44.0195C238.771 44.0195 238.269 43.9737 237.789 43.8821C241.767 47.0073 247.874 49.4384 256.326 49.5H256.854C257.304 49.5 257.743 49.4713 258.182 49.4425C260.926 49.2605 263.571 48.6185 266.015 47.6124C268.111 46.7501 270.067 45.6099 271.833 44.2589L271.918 44.1933L271.984 44.1423C270.788 44.1333 269.722 43.9328 268.787 43.541C267.83 43.1309 267.023 42.5794 266.367 41.8867C265.72 41.194 265.223 40.3828 264.877 39.4531C264.54 38.5234 264.371 37.5391 264.371 36.5C264.371 35.4609 264.549 34.4857 264.904 33.5742C265.269 32.6628 265.779 31.8698 266.436 31.1953C267.092 30.5117 267.876 29.974 268.787 29.582C269.699 29.1901 270.71 28.9941 271.822 28.9941C272.934 28.9941 273.919 29.181 274.775 29.5547C275.641 29.9193 276.37 30.4297 276.963 31.0859C277.555 31.7331 278.011 32.4987 278.33 33.3828C278.599 34.1216 278.765 34.909 278.826 35.7452C280.483 32.3304 281.274 28.5022 280.914 24.5305C280.455 19.4619 278.39 15.4951 278.39 15.4951L275.176 18.36C275.176 18.36 266.455 17.0378 261.405 17.0378C257.264 17.0378 253.601 17.9193 253.601 17.9193C253.601 17.9193 254.978 15.4951 254.978 11.5284C254.978 5.75067 250.388 0.5 242.824 0.5C237.774 0.5 233.184 4.24637 233.503 8.66348C233.413 8.64432 233.313 8.63474 233.214 8.63474C232.375 8.63474 231.697 9.28629 231.697 10.0911C231.697 10.2827 231.737 10.4744 231.806 10.6469L227.605 12.7931C226.607 13.3009 226.947 14.3741 227.875 14.9873C229.282 15.9263 233.643 16.5874 233.643 16.5874ZM230.659 28.9284C230.683 28.0621 230.776 27.1563 230.915 26.2461H231.982V36.707C230.984 34.5331 230.568 32.14 230.659 28.9284ZM277.829 37.5801C277.406 38.2802 276.946 38.959 276.451 39.6136L276.416 39.5488C276.079 39.6764 275.746 39.7995 275.418 39.918C275.09 40.0273 274.753 40.1276 274.406 40.2188C274.06 40.3008 273.7 40.3691 273.326 40.4238C272.962 40.4694 272.574 40.4922 272.164 40.4922C271.754 40.4922 271.348 40.4421 270.947 40.3418C270.546 40.2324 270.182 40.0729 269.854 39.8633C269.525 39.6536 269.238 39.3939 268.992 39.084C268.755 38.7741 268.587 38.4141 268.486 38.0039L268.445 37.5801H277.829ZM238.647 9.68869C237.781 9.68613 237.076 9.01636 237.076 8.1748H240.219C240.219 9.00687 239.523 9.68616 238.647 9.68869ZM271.713 32.4121C271.202 32.4121 270.765 32.4759 270.4 32.6035C270.045 32.722 269.744 32.8906 269.498 33.1094C269.252 33.319 269.056 33.5605 268.91 33.834C268.764 34.1074 268.65 34.3945 268.568 34.6953H274.488C274.424 34.3854 274.333 34.0938 274.215 33.8203C274.096 33.5469 273.932 33.3053 273.723 33.0957C273.513 32.8861 273.244 32.722 272.916 32.6035C272.597 32.4759 272.196 32.4121 271.713 32.4121ZM252.271 38.0039L252.23 37.5801H262.662C262.68 37.3431 262.685 37.1152 262.676 36.8965C262.676 36.6686 262.662 36.4408 262.635 36.2129C262.607 35.2012 262.434 34.2578 262.115 33.3828C261.796 32.4987 261.34 31.7331 260.748 31.0859C260.156 30.4297 259.426 29.9193 258.561 29.5547C257.704 29.181 256.719 28.9941 255.607 28.9941C254.495 28.9941 253.484 29.1901 252.572 29.582C251.661 29.974 250.877 30.5117 250.221 31.1953C249.564 31.8698 249.054 32.6628 248.689 33.5742C248.334 34.4857 248.156 35.4609 248.156 36.5C248.156 37.5391 248.325 38.5234 248.662 39.4531C249.008 40.3828 249.505 41.194 250.152 41.8867C250.809 42.5794 251.615 43.1309 252.572 43.541C253.529 43.9421 254.623 44.1426 255.854 44.1426C256.51 44.1426 257.084 44.1061 257.576 44.0332C258.068 43.9694 258.533 43.8646 258.971 43.7188C259.408 43.5729 259.841 43.3906 260.27 43.1719C260.707 42.944 261.186 42.6706 261.705 42.3516L260.201 39.5488C259.864 39.6764 259.531 39.7995 259.203 39.918C258.875 40.0273 258.538 40.1276 258.191 40.2188C257.845 40.3008 257.485 40.3691 257.111 40.4238C256.747 40.4694 256.359 40.4922 255.949 40.4922C255.539 40.4922 255.133 40.4421 254.732 40.3418C254.331 40.2324 253.967 40.0729 253.639 39.8633C253.311 39.6536 253.023 39.3939 252.777 39.084C252.54 38.7741 252.372 38.4141 252.271 38.0039ZM254.186 32.6035C254.55 32.4759 254.988 32.4121 255.498 32.4121C255.981 32.4121 256.382 32.4759 256.701 32.6035C257.029 32.722 257.298 32.8861 257.508 33.0957C257.717 33.3053 257.882 33.5469 258 33.8203C258.118 34.0938 258.21 34.3854 258.273 34.6953H252.354C252.436 34.3945 252.549 34.1074 252.695 33.834C252.841 33.5605 253.037 33.319 253.283 33.1094C253.529 32.8906 253.83 32.722 254.186 32.6035ZM239.01 32.959C238.408 32.959 237.866 33.0957 237.383 33.3691C236.909 33.6426 236.508 34.0345 236.18 34.5449V38.7832C236.471 39.2207 236.859 39.5762 237.342 39.8496C237.834 40.1139 238.381 40.2461 238.982 40.2461C239.447 40.2461 239.889 40.1641 240.309 40C240.728 39.8268 241.092 39.5853 241.402 39.2754C241.721 38.9564 241.972 38.5781 242.154 38.1406C242.337 37.694 242.428 37.1927 242.428 36.6367C242.428 36.0716 242.337 35.5612 242.154 35.1055C241.972 34.6497 241.726 34.2624 241.416 33.9434C241.106 33.6243 240.742 33.3828 240.322 33.2188C239.912 33.0456 239.475 32.959 239.01 32.959ZM0.804688 22.7266H6.98438V30.1504C7.47656 29.9134 7.98242 29.7311 8.50195 29.6035C9.02148 29.4759 9.55469 29.4121 10.1016 29.4121C11.1497 29.4121 12.1204 29.6081 13.0137 30C13.9069 30.3919 14.6771 30.9251 15.3242 31.5996C15.9714 32.2741 16.4772 33.0625 16.8418 33.9648C17.2155 34.8672 17.4023 35.8242 17.4023 36.8359C17.4023 37.8568 17.22 38.8184 16.8555 39.7207C16.5 40.623 15.9987 41.4115 15.3516 42.0859C14.7044 42.7513 13.9342 43.28 13.041 43.6719C12.1478 44.0547 11.168 44.2461 10.1016 44.2461C9.52734 44.2461 8.98047 44.1914 8.46094 44.082C7.94141 43.9727 7.44922 43.8177 6.98438 43.6172V44H2.78711V26.4727H0.804688V22.7266ZM9.81445 33.1855C9.21289 33.1855 8.67058 33.3223 8.1875 33.5957C7.71355 33.8691 7.3125 34.2611 6.98438 34.7715V39.0098C7.27605 39.4473 7.66341 39.8027 8.14648 40.0762C8.63867 40.3405 9.18555 40.4727 9.78711 40.4727C10.252 40.4727 10.694 40.3906 11.1133 40.2266C11.5325 40.0534 11.8971 39.8118 12.207 39.502C12.526 39.1829 12.7767 38.8047 12.959 38.3672C13.1413 37.9206 13.2324 37.4193 13.2324 36.8633C13.2324 36.2982 13.1413 35.7878 12.959 35.332C12.7767 34.8763 12.5306 34.4889 12.2207 34.1699C11.9108 33.8509 11.5462 33.6094 11.127 33.4453C10.7168 33.2721 10.2793 33.1855 9.81445 33.1855ZM149.062 22.7266H155.447V40.2539H157.635V44H149.062V40.2539H151.25V26.4727H149.062V22.7266ZM166.111 22.7266H159.727V26.4727H161.914V40.2539H159.727V44H168.299V40.2539H166.111V22.7266ZM170.678 29.8359H177.035V40.2539H179.004V44H170.678V40.2539H172.811V33.582H170.678V29.8359ZM172.592 25.2695C172.592 24.9323 172.651 24.6178 172.77 24.3262C172.897 24.0254 173.07 23.7656 173.289 23.5469C173.508 23.3281 173.763 23.155 174.055 23.0273C174.355 22.8997 174.679 22.8359 175.025 22.8359C175.354 22.8359 175.663 22.8997 175.955 23.0273C176.247 23.155 176.502 23.3281 176.721 23.5469C176.939 23.7656 177.113 24.0254 177.24 24.3262C177.368 24.6178 177.432 24.9323 177.432 25.2695C177.432 25.6068 177.368 25.9258 177.24 26.2266C177.113 26.5182 176.939 26.7734 176.721 26.9922C176.502 27.2109 176.247 27.3841 175.955 27.5117C175.663 27.6393 175.354 27.7031 175.025 27.7031C174.679 27.7031 174.355 27.6393 174.055 27.5117C173.763 27.3841 173.508 27.2109 173.289 26.9922C173.07 26.7734 172.897 26.5182 172.77 26.2266C172.651 25.9258 172.592 25.6068 172.592 25.2695ZM211.953 43.2617C211.443 43.5534 210.932 43.763 210.422 43.8906C209.911 44.0182 209.392 44.082 208.863 44.082C207.77 44.082 206.762 43.8952 205.842 43.5215C204.921 43.1478 204.124 42.6328 203.449 41.9766C202.784 41.3112 202.264 40.5273 201.891 39.625C201.517 38.7227 201.33 37.7428 201.33 36.6855C201.33 35.6921 201.508 34.7578 201.863 33.8828C202.228 32.9987 202.734 32.2285 203.381 31.5723C204.028 30.9069 204.803 30.3828 205.705 30C206.607 29.6172 207.587 29.4212 208.645 29.4121C209.292 29.4212 209.884 29.4896 210.422 29.6172C210.969 29.7448 211.479 29.918 211.953 30.1367V29.8359H216.096V43.4121C216.096 44.6061 215.891 45.6361 215.48 46.502C215.07 47.377 214.519 48.097 213.826 48.6621C213.143 49.2363 212.345 49.6602 211.434 49.9336C210.522 50.2161 209.565 50.3574 208.562 50.3574C207.323 50.3574 206.174 50.1888 205.117 49.8516C204.069 49.5143 203.135 49.0586 202.314 48.4844L204.023 45.4492C204.652 45.8503 205.336 46.1647 206.074 46.3926C206.812 46.6296 207.633 46.748 208.535 46.748C209.027 46.748 209.479 46.6934 209.889 46.584C210.308 46.4746 210.668 46.2878 210.969 46.0234C211.279 45.7682 211.52 45.4219 211.693 44.9844C211.867 44.5469 211.953 43.9954 211.953 43.3301V43.2617ZM209 40.2949C209.638 40.2949 210.212 40.1354 210.723 39.8164C211.242 39.4883 211.652 39.0599 211.953 38.5312L211.98 35.0859C211.671 34.5117 211.247 34.056 210.709 33.7188C210.171 33.3815 209.588 33.2083 208.959 33.1992C208.512 33.2083 208.075 33.2995 207.646 33.4727C207.218 33.6367 206.844 33.8737 206.525 34.1836C206.215 34.4935 205.969 34.8626 205.787 35.291C205.605 35.7103 205.514 36.1797 205.514 36.6992C205.514 37.2461 205.605 37.7428 205.787 38.1895C205.969 38.6361 206.215 39.0143 206.525 39.3242C206.835 39.6341 207.2 39.8757 207.619 40.0488C208.048 40.2129 208.508 40.2949 209 40.2949ZM218.898 37.8613V34.1152H227.471V37.8613H218.898ZM192.498 33.9922C192.917 34.4388 193.127 35.0586 193.127 35.8516V44H199.594V40.2539H197.584V35.1816C197.584 33.3496 197.124 31.9596 196.203 31.0117C195.283 30.0547 193.97 29.5762 192.266 29.5762C191.454 29.5762 190.68 29.7129 189.941 29.9863C189.212 30.2507 188.551 30.6152 187.959 31.0801V29.8359H181.506V33.582H183.557V40.2539H181.479V44H190.283V40.2539H187.986V34.7988C188.442 34.2246 188.911 33.8327 189.395 33.623C189.878 33.4134 190.356 33.3086 190.83 33.3086C191.523 33.3086 192.079 33.5365 192.498 33.9922ZM136.854 38.2305L136.812 37.8066H147.244C147.262 37.5697 147.267 37.3418 147.258 37.123C147.258 36.8952 147.244 36.6673 147.217 36.4395C147.189 35.4277 147.016 34.4844 146.697 33.6094C146.378 32.7253 145.923 31.9596 145.33 31.3125C144.738 30.6562 144.008 30.1458 143.143 29.7812C142.286 29.4075 141.301 29.2207 140.189 29.2207C139.077 29.2207 138.066 29.4167 137.154 29.8086C136.243 30.2005 135.459 30.7383 134.803 31.4219C134.146 32.0964 133.636 32.8893 133.271 33.8008C132.916 34.7122 132.738 35.6875 132.738 36.7266C132.738 37.7656 132.907 38.75 133.244 39.6797C133.59 40.6094 134.087 41.4206 134.734 42.1133C135.391 42.806 136.197 43.3574 137.154 43.7676C138.111 44.1686 139.205 44.3691 140.436 44.3691C141.092 44.3691 141.666 44.3327 142.158 44.2598C142.65 44.196 143.115 44.0911 143.553 43.9453C143.99 43.7995 144.423 43.6172 144.852 43.3984C145.289 43.1706 145.768 42.8971 146.287 42.5781L144.783 39.7754C144.446 39.903 144.113 40.026 143.785 40.1445C143.457 40.2539 143.12 40.3542 142.773 40.4453C142.427 40.5273 142.067 40.5957 141.693 40.6504C141.329 40.696 140.941 40.7188 140.531 40.7188C140.121 40.7188 139.715 40.6686 139.314 40.5684C138.913 40.459 138.549 40.2995 138.221 40.0898C137.893 39.8802 137.605 39.6204 137.359 39.3105C137.122 39.0007 136.954 38.6406 136.854 38.2305ZM138.768 32.8301C139.132 32.7025 139.57 32.6387 140.08 32.6387C140.563 32.6387 140.964 32.7025 141.283 32.8301C141.611 32.9486 141.88 33.1126 142.09 33.3223C142.299 33.5319 142.464 33.7734 142.582 34.0469C142.701 34.3203 142.792 34.612 142.855 34.9219H136.936C137.018 34.6211 137.132 34.334 137.277 34.0605C137.423 33.7871 137.619 33.5456 137.865 33.3359C138.111 33.1172 138.412 32.9486 138.768 32.8301ZM114.965 29.8359H121.145V30.041C121.582 29.8496 122.029 29.6992 122.484 29.5898C122.94 29.4714 123.41 29.4121 123.893 29.4121C124.932 29.4121 125.898 29.6081 126.791 30C127.684 30.3919 128.459 30.9251 129.115 31.5996C129.771 32.2741 130.282 33.0625 130.646 33.9648C131.02 34.8672 131.207 35.8242 131.207 36.8359C131.207 37.8568 131.025 38.8184 130.66 39.7207C130.305 40.623 129.803 41.4115 129.156 42.0859C128.509 42.7513 127.734 43.28 126.832 43.6719C125.939 44.0547 124.959 44.2461 123.893 44.2461C123.291 44.2461 122.73 44.1868 122.211 44.0684C121.691 43.959 121.19 43.7995 120.707 43.5898V46.6934H123.414V50.4395H114.172V46.6934H116.496V33.582H114.965V29.8359ZM123.592 33.1855C123.018 33.1855 122.48 33.3359 121.979 33.6367C121.477 33.9375 121.053 34.3613 120.707 34.9082V38.9004C120.999 39.3652 121.395 39.7435 121.896 40.0352C122.398 40.3268 122.963 40.4727 123.592 40.4727C124.057 40.4727 124.499 40.3861 124.918 40.2129C125.337 40.0306 125.702 39.78 126.012 39.4609C126.322 39.1328 126.568 38.75 126.75 38.3125C126.932 37.8659 127.023 37.3828 127.023 36.8633C127.023 36.2891 126.932 35.7741 126.75 35.3184C126.577 34.8626 126.335 34.4798 126.025 34.1699C125.715 33.8509 125.351 33.6094 124.932 33.4453C124.512 33.2721 124.066 33.1855 123.592 33.1855ZM108.184 33.541C108.329 33.7415 108.402 33.9512 108.402 34.1699H111.93V30.3691H109.551C109.341 30.2051 109.1 30.0501 108.826 29.9043C108.562 29.7493 108.252 29.6172 107.896 29.5078C107.541 29.3984 107.14 29.3118 106.693 29.248C106.247 29.1751 105.736 29.1387 105.162 29.1387C104.324 29.1387 103.535 29.248 102.797 29.4668C102.068 29.6855 101.43 29.9954 100.883 30.3965C100.336 30.7884 99.903 31.2669 99.584 31.832C99.265 32.388 99.1055 33.0078 99.1055 33.6914C99.1055 34.8581 99.5247 35.8151 100.363 36.5625C101.202 37.3008 102.446 37.8294 104.096 38.1484L106.721 38.709C107.186 38.8184 107.509 38.9688 107.691 39.1602C107.874 39.3425 107.965 39.5658 107.965 39.8301C107.965 40.1673 107.778 40.4453 107.404 40.6641C107.031 40.8737 106.434 40.9785 105.613 40.9785C105.258 40.9785 104.921 40.9466 104.602 40.8828C104.283 40.8099 103.995 40.7051 103.74 40.5684C103.494 40.4316 103.294 40.2676 103.139 40.0762C102.984 39.8757 102.902 39.6432 102.893 39.3789V39.2969H99.0234V43.0977H101.498C101.717 43.28 101.954 43.4486 102.209 43.6035C102.473 43.7493 102.77 43.877 103.098 43.9863C103.435 44.0957 103.809 44.1823 104.219 44.2461C104.638 44.3099 105.103 44.3418 105.613 44.3418C106.397 44.3418 107.172 44.237 107.938 44.0273C108.712 43.8268 109.405 43.526 110.016 43.125C110.635 42.7148 111.132 42.2044 111.506 41.5938C111.889 40.9831 112.08 40.2721 112.08 39.4609C112.08 38.9414 111.993 38.4583 111.82 38.0117C111.656 37.5651 111.383 37.1595 111 36.7949C110.617 36.4303 110.111 36.1113 109.482 35.8379C108.854 35.5645 108.074 35.3366 107.145 35.1543L104.574 34.6484C104.319 34.6029 104.109 34.5436 103.945 34.4707C103.79 34.3887 103.667 34.3021 103.576 34.2109C103.485 34.1198 103.421 34.0241 103.385 33.9238C103.357 33.8236 103.344 33.7188 103.344 33.6094C103.344 33.3906 103.403 33.2129 103.521 33.0762C103.649 32.9303 103.804 32.8164 103.986 32.7344C104.178 32.6523 104.383 32.5977 104.602 32.5703C104.82 32.5339 105.025 32.5156 105.217 32.5156C105.718 32.5156 106.165 32.5612 106.557 32.6523C106.958 32.7435 107.295 32.8665 107.568 33.0215C107.842 33.1673 108.047 33.3405 108.184 33.541ZM88.5781 37.8613V34.1152H97.1504V37.8613H88.5781ZM82.6719 34.9902H86.5137V29.8633C85.9668 29.8633 85.3744 29.8587 84.7363 29.8496C84.0983 29.8405 83.4785 29.8359 82.877 29.8359C82.2845 29.8359 81.7376 29.9225 81.2363 30.0957C80.735 30.2689 80.2839 30.515 79.8828 30.834V29.8359H73.5801V33.582H75.6719V40.2539H73.5527V44H82.7949V40.2539H79.9102V35.127C79.974 34.8171 80.0833 34.5573 80.2383 34.3477C80.4023 34.138 80.5983 33.974 80.8262 33.8555C81.0631 33.737 81.3366 33.655 81.6465 33.6094C81.9564 33.5547 82.2982 33.5273 82.6719 33.5273V34.9902ZM61.125 37.8066L61.166 38.2305C61.2663 38.6406 61.4349 39.0007 61.6719 39.3105C61.918 39.6204 62.2051 39.8802 62.5332 40.0898C62.8613 40.2995 63.2259 40.459 63.627 40.5684C64.028 40.6686 64.4336 40.7188 64.8438 40.7188C65.2539 40.7188 65.6413 40.696 66.0059 40.6504C66.3796 40.5957 66.7396 40.5273 67.0859 40.4453C67.4323 40.3542 67.7695 40.2539 68.0977 40.1445C68.4258 40.026 68.7585 39.903 69.0957 39.7754L70.5996 42.5781C70.0801 42.8971 69.6016 43.1706 69.1641 43.3984C68.7357 43.6172 68.3027 43.7995 67.8652 43.9453C67.4277 44.0911 66.9629 44.196 66.4707 44.2598C65.9785 44.3327 65.4043 44.3691 64.748 44.3691C63.5176 44.3691 62.4238 44.1686 61.4668 43.7676C60.5098 43.3574 59.7031 42.806 59.0469 42.1133C58.3997 41.4206 57.903 40.6094 57.5566 39.6797C57.2194 38.75 57.0508 37.7656 57.0508 36.7266C57.0508 35.6875 57.2285 34.7122 57.584 33.8008C57.9486 32.8893 58.459 32.0964 59.1152 31.4219C59.7715 30.7383 60.5553 30.2005 61.4668 29.8086C62.3783 29.4167 63.39 29.2207 64.502 29.2207C65.6139 29.2207 66.5983 29.4075 67.4551 29.7812C68.321 30.1458 69.0501 30.6562 69.6426 31.3125C70.235 31.9596 70.6908 32.7253 71.0098 33.6094C71.3288 34.4844 71.502 35.4277 71.5293 36.4395C71.5566 36.6673 71.5703 36.8952 71.5703 37.123C71.5794 37.3418 71.5749 37.5697 71.5566 37.8066H61.125ZM64.3926 32.6387C63.8822 32.6387 63.4447 32.7025 63.0801 32.8301C62.7246 32.9486 62.4238 33.1172 62.1777 33.3359C61.9316 33.5456 61.7357 33.7871 61.5898 34.0605C61.444 34.334 61.3301 34.6211 61.248 34.9219H67.168C67.1042 34.612 67.013 34.3203 66.8945 34.0469C66.776 33.7734 66.612 33.5319 66.4023 33.3223C66.1927 33.1126 65.9238 32.9486 65.5957 32.8301C65.2767 32.7025 64.8756 32.6387 64.3926 32.6387ZM54.6855 29.8359H51.8555L51.8828 24.4219L47.6309 26.4453L47.6035 29.8359H45.5527V33.418H47.5898L47.5488 39.6934C47.5397 40.4681 47.6491 41.1471 47.877 41.7305C48.1048 42.3138 48.4102 42.8014 48.793 43.1934C49.1758 43.5762 49.6178 43.8633 50.1191 44.0547C50.6296 44.2461 51.1628 44.3418 51.7188 44.3418C52.5026 44.3418 53.1771 44.2552 53.7422 44.082C54.3164 43.9089 54.8359 43.6764 55.3008 43.3848L54.7129 40.7461C54.4486 40.8372 54.1842 40.9193 53.9199 40.9922C53.6556 41.056 53.3503 41.0879 53.0039 41.0879C52.8125 41.0879 52.6439 41.0651 52.498 41.0195C52.3522 40.974 52.2246 40.8874 52.1152 40.7598C52.015 40.6322 51.9375 40.4635 51.8828 40.2539C51.8281 40.0352 51.8008 39.7526 51.8008 39.4062L51.8281 33.418H54.6855V29.8359ZM40.918 29.8359H43.748V33.418H40.8906L40.8633 39.4062C40.8633 39.7526 40.8906 40.0352 40.9453 40.2539C41 40.4635 41.0775 40.6322 41.1777 40.7598C41.2871 40.8874 41.4147 40.974 41.5605 41.0195C41.7064 41.0651 41.875 41.0879 42.0664 41.0879C42.4128 41.0879 42.7181 41.056 42.9824 40.9922C43.2467 40.9193 43.5111 40.8372 43.7754 40.7461L44.3633 43.3848C43.8984 43.6764 43.3789 43.9089 42.8047 44.082C42.2396 44.2552 41.5651 44.3418 40.7812 44.3418C40.2253 44.3418 39.6921 44.2461 39.1816 44.0547C38.6803 43.8633 38.2383 43.5762 37.8555 43.1934C37.4727 42.8014 37.1673 42.3138 36.9395 41.7305C36.7116 41.1471 36.6022 40.4681 36.6113 39.6934L36.6523 33.418H34.6152V29.8359H36.666L36.6934 26.4453L40.9453 24.4219L40.918 29.8359ZM23.0762 38.2305L23.0352 37.8066H33.4668C33.485 37.5697 33.4896 37.3418 33.4805 37.123C33.4805 36.8952 33.4668 36.6673 33.4395 36.4395C33.4121 35.4277 33.2389 34.4844 32.9199 33.6094C32.6009 32.7253 32.1452 31.9596 31.5527 31.3125C30.9603 30.6562 30.2311 30.1458 29.3652 29.7812C28.5085 29.4075 27.5241 29.2207 26.4121 29.2207C25.3001 29.2207 24.2884 29.4167 23.377 29.8086C22.4655 30.2005 21.6816 30.7383 21.0254 31.4219C20.3691 32.0964 19.8587 32.8893 19.4941 33.8008C19.1387 34.7122 18.9609 35.6875 18.9609 36.7266C18.9609 37.7656 19.1296 38.75 19.4668 39.6797C19.8132 40.6094 20.3099 41.4206 20.957 42.1133C21.6133 42.806 22.4199 43.3574 23.377 43.7676C24.334 44.1686 25.4277 44.3691 26.6582 44.3691C27.3145 44.3691 27.8887 44.3327 28.3809 44.2598C28.873 44.196 29.3379 44.0911 29.7754 43.9453C30.2129 43.7995 30.6458 43.6172 31.0742 43.3984C31.5117 43.1706 31.9902 42.8971 32.5098 42.5781L31.0059 39.7754C30.6686 39.903 30.3359 40.026 30.0078 40.1445C29.6797 40.2539 29.3425 40.3542 28.9961 40.4453C28.6497 40.5273 28.2897 40.5957 27.916 40.6504C27.5514 40.696 27.1641 40.7188 26.7539 40.7188C26.3438 40.7188 25.9382 40.6686 25.5371 40.5684C25.1361 40.459 24.7715 40.2995 24.4434 40.0898C24.1152 39.8802 23.8281 39.6204 23.582 39.3105C23.345 39.0007 23.1764 38.6406 23.0762 38.2305ZM24.9902 32.8301C25.3548 32.7025 25.7923 32.6387 26.3027 32.6387C26.7858 32.6387 27.1868 32.7025 27.5059 32.8301C27.834 32.9486 28.1029 33.1126 28.3125 33.3223C28.5221 33.5319 28.6862 33.7734 28.8047 34.0469C28.9232 34.3203 29.0143 34.612 29.0781 34.9219H23.1582C23.2402 34.6211 23.3542 34.334 23.5 34.0605C23.6458 33.7871 23.8418 33.5456 24.0879 33.3359C24.334 33.1172 24.6348 32.9486 24.9902 32.8301Z" fill="white"/>
</svg>
