<?xml version="1.0" encoding="UTF-8"?>
<svg id="Layer_2" xmlns="http://www.w3.org/2000/svg" xmlns:xlink="http://www.w3.org/1999/xlink" viewBox="0 0 156.94 159.28">
  <defs>
    <style>
      .cls-1 {
        fill: url(#linear-gradient);
      }

      .cls-2 {
        fill: #ffe876;
      }

      .cls-3 {
        fill: #ffa607;
      }
    </style>
    <linearGradient id="linear-gradient" x1="0" y1="79.64" x2="219.43" y2="79.64" gradientUnits="userSpaceOnUse">
      <stop offset="0" stop-color="#fac02a" stop-opacity=".6"/>
      <stop offset=".42" stop-color="#fac02a" stop-opacity=".71"/>
      <stop offset="1" stop-color="#fac02a" stop-opacity=".9"/>
    </linearGradient>
  </defs>
  <g id="Layer_2-2" data-name="Layer_2">
    <path class="cls-2" d="M156.94,76.32c-8.1-.77-16.23-1.32-22.89-1.32-18.03,0-34,4-34,4,0,0,6-11,6-29C106.05,23.81,86.05,0,53.05,0,31.05,0,1.42,20.85.42,54.85c-.62,20.99,6.84,35.37,6.2,37.61C3.51,103.29.38,116.98.05,129c-.18,6.74.11,12.69.91,18.11,15,7.77,32.03,12.17,50.09,12.17,51.23,0,94.2-35.33,105.89-82.96Z"/>
    <g>
      <path class="cls-1" d="M156.94,76.32c-8.1-.77-16.23-1.32-22.89-1.32-18.03,0-34,4-34,4,0,0,6-11,6-29C106.05,23.81,86.05,0,53.05,0,31.05,0,1.42,20.85.42,54.85c-.62,20.99,6.84,35.37,6.2,37.61C3.51,103.29.38,116.98.05,129c-.18,6.74.11,12.69.91,18.11,15,7.77,32.03,12.17,50.09,12.17,51.23,0,94.2-35.33,105.89-82.96ZM82.73,41.52l13.24,3.49c-.97,3.66-4.71,5.84-8.37,4.87s-5.84-4.71-4.87-8.36ZM34.87,44.62l13.24-3.49c.97,3.66-1.22,7.4-4.87,8.36s-7.4-1.22-8.37-4.87ZM44.84,59.57l20.64-9.45,20.64,9.45c5.02,2.3,3.31,7.16-1.35,9.96-5.2,3.12-14.56,6.1-19.29,6.1s-14.09-2.98-19.29-6.1c-4.66-2.8-6.36-7.67-1.35-9.96Z"/>
      <path class="cls-3" d="M84.77,69.53c4.66-2.8,6.36-7.67,1.35-9.96l-20.64-9.45-20.64,9.45c-5.02,2.3-3.31,7.16,1.35,9.96,5.2,3.12,14.79,6.1,19.29,6.1,4.73,0,14.09-2.98,19.29-6.1Z"/>
      <path d="M87.6,49.88c3.66.96,7.4-1.22,8.37-4.87l-13.24-3.49c-.97,3.66,1.22,7.4,4.87,8.36Z"/>
      <path d="M48.12,41.14l-13.24,3.49c.97,3.66,4.71,5.84,8.37,4.87s5.84-4.71,4.87-8.36Z"/>
    </g>
  </g>
</svg>