<svg width="121" height="145" viewBox="0 0 121 145" fill="none" xmlns="http://www.w3.org/2000/svg">
<path fill-rule="evenodd" clip-rule="evenodd" d="M118.916 97.3484C119.816 93.2109 120.29 88.9146 120.29 84.5076C120.29 51.2904 93.3622 0 60.145 0C50.3798 0 41.1582 4.43275 33.0044 11.5359C39.3908 13.2542 44.4875 18.5131 45.6019 25.396C47.1241 34.7966 40.6413 43.6667 31.1224 45.208C23.8434 46.3866 16.8968 42.9385 13.3499 37.047C5.00048 52.5229 0 70.1933 0 84.5076C0 116.101 24.3602 142.006 55.3225 144.462C48.3421 131.891 49.7027 114.657 59.9995 101.084C73.3742 83.4547 96.7612 78.6804 112.236 90.4204C114.861 92.412 117.09 94.7511 118.916 97.3484ZM80.5646 27.3334C83.6934 26.8267 85.8242 23.9112 85.3239 20.8213C84.8236 17.7314 81.8816 15.6373 78.7528 16.1439C75.624 16.6505 73.4932 19.566 73.9935 22.6559C74.4938 25.7458 77.4358 27.84 80.5646 27.3334Z" fill="white" opacity="0.5"/>
</svg>
