<svg width="122" height="80" viewBox="0 0 122 80" fill="none" xmlns="http://www.w3.org/2000/svg">
<path fill-rule="evenodd" clip-rule="evenodd" d="M39.7802 68C50.7045 68 59.5604 59.1441 59.5604 48.2198C59.5604 47.8341 59.5494 47.4509 59.5276 47.0707C61.4131 46.8535 63.4164 46.7363 65.4945 46.7363C67.2153 46.7363 68.8848 46.8166 70.4786 46.9676C70.4527 47.3817 70.4396 47.7992 70.4396 48.2198C70.4396 59.1441 79.2955 68 90.2198 68C101.144 68 110 59.1441 110 48.2198C110 37.2955 101.144 28.4396 90.2198 28.4396C80.052 28.4396 71.676 36.1114 70.5647 45.9823C68.9392 45.8286 67.2409 45.7473 65.4945 45.7473C63.3947 45.7473 61.3643 45.8648 59.4465 46.0845C58.3817 36.1644 49.9831 28.4396 39.7802 28.4396C28.8559 28.4396 20 37.2955 20 48.2198C20 59.1441 28.8559 68 39.7802 68Z" fill="black"/>
</svg>
