<svg width="122" height="80" viewBox="0 0 122 80" fill="none" xmlns="http://www.w3.org/2000/svg">
<path d="M60 47.5179C60 47.5119 60 47.506 60 47.5C60 40.3203 51.0457 34.5 40 34.5C28.9543 34.5 20 40.3203 20 47.5C20 54.6797 28.9543 60.5 40 60.5C50.5116 60.5 59.1292 55.229 59.938 48.5314C61.8529 48.3097 63.8882 48.19 66 48.19C67.7437 48.19 69.4352 48.2716 71.0498 48.4249C71.7796 55.173 80.4327 60.5 91 60.5C102.046 60.5 111 54.6797 111 47.5C111 40.3203 102.046 34.5 91 34.5C79.9975 34.5 71.07 40.2749 71.0004 47.4159C69.3952 47.2681 67.7206 47.19 66 47.19C63.9189 47.19 61.9051 47.3042 60 47.5179Z" fill="black"/>
</svg>
