<svg width="122" height="80" viewBox="0 0 122 80" fill="none" xmlns="http://www.w3.org/2000/svg">
<path d="M60.6091 42.7299L12.5 36C12.5 36 22.44 58.26 40.71 58.56C49.5433 58.7028 57.6602 54.7375 60.017 46.0676C61.7316 45.8932 63.536 45.8 65.4 45.8C67.621 45.8 69.7574 45.9324 71.7581 46.1766C74.1216 54.8333 82.233 58.7926 91.0599 58.65C109.33 58.35 119.27 36.09 119.27 36.09L71.1608 42.8199C71.1605 42.8166 71.1602 42.8133 71.1599 42.81L71.1608 42.8199C71.2344 43.6253 71.3509 44.3986 71.5076 45.1401C69.5707 44.9186 67.5204 44.8 65.4 44.8C63.6312 44.8 61.911 44.8825 60.2648 45.0385C60.4202 44.3006 60.5359 43.5312 60.6091 42.7299Z" fill="black"/>
</svg>
