<svg width="122" height="80" viewBox="0 0 122 80" fill="none" xmlns="http://www.w3.org/2000/svg">
<path d="M67.5 35.7832C48.1543 35.7832 36.4793 39.8705 31.2565 42.2945C29.5248 43.0982 27.312 42.3797 26.582 40.6156L22 29.5424C22 29.5424 39.5 24.0424 65.5 24.0424C87.0058 24.0424 103 34.5424 103 34.5424L104.291 41.9641C104.577 43.6126 102.814 44.9219 101.294 44.2218C94.8958 41.2741 81.1451 35.7832 67.5 35.7832Z" fill="white"/>
<path d="M64.1196 24.5424C28 24.5424 2 36.0424 2 36.0424L4.1683 25.0424C4.1683 25.0424 26.5 8.04245 64.1196 9.04245C85.9956 9.62396 104.805 24.0424 104.805 24.0424L105 36.0424C105 36.0424 91 24.5424 64.1196 24.5424Z" fill="#F3F3F3"/>
<path d="M2.21544 34.9495C4.77597 33.8592 29.9086 23.5424 64.1196 23.5424C90.4676 23.5424 104.44 34.5914 104.984 35.0291L105 36.0424C105 36.0424 91 24.5424 64.1196 24.5424C28 24.5424 2 36.0424 2 36.0424L2.21544 34.9495Z" fill="url(#paint0_linear_102_118)"/>
<defs>
<linearGradient id="paint0_linear_102_118" x1="2" y1="29.2925" x2="105" y2="29.2925" gradientUnits="userSpaceOnUse">
<stop stop-color="#F3F3F3"/>
<stop offset="0.64" stop-color="#D0D0D0"/>
<stop offset="1" stop-color="#E3E3E3"/>
</linearGradient>
</defs>
</svg>
