<svg width="122" height="80" viewBox="0 0 122 80" fill="none" xmlns="http://www.w3.org/2000/svg">
<path d="M26.7753 36.9588C25.7474 27.8504 21.3137 21 16 21C9.92487 21 5 29.9543 5 41C5 45.637 5.86791 49.9053 7.32448 53.2974L20.9799 46.09C20.6699 45.31 20.4899 44.47 20.4899 43.58C20.4899 42.723 20.6527 41.9039 20.9491 41.1519C22.5379 40.3885 24.4447 39.9412 26.5 39.9412C28.5335 39.9412 30.4217 40.3791 32.0003 41.1277C32.0501 52.1146 38.5228 61 46.5 61C54.5081 61 61 52.0457 61 41C61 29.9543 54.5081 21 46.5 21C38.6947 21 32.3298 29.5065 32.0124 40.1649C30.4102 39.4247 28.5201 39 26.5 39C24.7334 39 23.0663 39.3248 21.6042 39.9013C22.7337 38.2116 24.6189 37.0694 26.7753 36.9588Z" fill="black"/>
</svg>
