<svg width="122" height="80" viewBox="0 0 122 80" fill="none" xmlns="http://www.w3.org/2000/svg">
<path d="M65 38C65 45.1797 58.1121 51 49.6154 51C41.4867 51 34.8304 45.6729 34.2691 38.9248C33.0271 38.7716 31.726 38.69 30.3848 38.69C25.9577 38.69 21.9678 39.579 19.0986 40.9998C17.6627 41.7108 16.5273 42.5454 15.7576 43.4468C14.9879 44.3483 14.6156 45.2761 14.6156 46.19H13.8463C13.8463 44.8939 14.3779 43.7167 15.2428 42.7038C16.1077 41.6909 17.3376 40.8017 18.8248 40.0653C21.8018 38.5911 25.8888 37.69 30.3848 37.69C31.7083 37.69 32.9963 37.7681 34.2311 37.9159C34.2846 30.7749 41.1519 25 49.6154 25C58.1121 25 65 30.8203 65 38Z" fill="black"/>
<path d="M12.6172 50.5039L20.9799 46.09C20.6699 45.31 20.4899 44.47 20.4899 43.58C20.4899 40.3113 22.8587 37.593 25.9723 37.0491C25.579 30.3133 21.0407 25 15.5 25C9.70101 25 5 30.8203 5 38C5 43.9419 8.21985 48.9528 12.6172 50.5039Z" fill="black"/>
</svg>
