<svg width="122" height="80" viewBox="0 0 122 80" fill="none" xmlns="http://www.w3.org/2000/svg">
<path d="M25.9996 33.86L4 27C4 27 7.75798 45.7596 14.7205 49.3938L20.9799 46.09C20.6699 45.31 20.4899 44.47 20.4899 43.58C20.4899 41.558 21.3964 39.7466 22.8248 38.5303C25.0241 38.1517 27.4489 37.9412 30 37.9412C30.9154 37.9412 31.8145 37.9683 32.6927 38.0205C34.9164 46.3312 41.6499 50.1375 48.9591 49.9962C64.529 49.6904 73 27 73 27L32.0008 33.86C32.0871 34.9902 32.2427 36.0583 32.4615 37.065C31.6555 37.0221 30.8339 37 30 37C28.3086 37 26.6677 37.0909 25.1053 37.262C25.3156 37.1949 25.5304 37.1381 25.7492 37.092C25.8682 36.0774 25.9528 35.0003 25.9996 33.86Z" fill="black"/>
</svg>
