<svg width="122" height="80" viewBox="0 0 122 80" fill="none" xmlns="http://www.w3.org/2000/svg">
<path d="M30.9458 22.96C29.1324 26.9782 28.175 31.3319 28.3006 35.8584C26.5584 35.8386 24.7093 35.6902 22.8061 35.4003C13.5243 33.9865 5.91783 30.3219 6.49999 26.5C7.08216 22.6781 15.6326 20.1461 24.9143 21.56C27.0672 21.8879 29.1002 22.3681 30.9458 22.96Z" fill="#BEBEBE"/>
<path d="M51 37C69 37.8467 87.5 27.5 87.5 27.5C87.5 27.5 67.0205 26.6002 55.5 23C39.5 18 33 14.5 33 14.5C33 14.5 3.5 17.5 6.5 27.5C8.5 22 12.3528 22.4798 21 26.3978C29.8549 30.4099 41.3874 36.5477 51 37Z" fill="white"/>
<path d="M85.5138 28.111C52.8979 25.9433 33 14.5 33 14.5L38.9271 2.49512C38.9271 2.49512 68.2305 14.3527 88.0614 16.9975C99.136 18.4745 116.681 19.3288 116.681 19.3288L120.067 28.6982C120.067 28.6982 99.0473 29.0105 85.5138 28.111Z" fill="#F3F3F3"/>
<path d="M85.5138 28.111C52.8979 25.9433 33 14.5 33 14.5L38.9271 2.49512C38.9271 2.49512 68.2305 14.3527 88.0614 16.9975C99.136 18.4745 116.681 19.3288 116.681 19.3288L120.067 28.6982C120.067 28.6982 99.0473 29.0105 85.5138 28.111Z" fill="#F3F3F3"/>
<path d="M33.3879 13.7142C36.3073 15.2931 55.5401 25.1189 85.5139 27.111C98.007 27.9413 116.88 27.739 119.707 27.703L120.067 28.6982C120.067 28.6982 99.0473 29.0105 85.5138 28.111C52.8979 25.9433 33 14.5 33 14.5L33.3879 13.7142Z" fill="url(#paint0_linear_102_125)"/>
<defs>
<linearGradient id="paint0_linear_102_125" x1="33" y1="21.2324" x2="120.067" y2="21.2324" gradientUnits="userSpaceOnUse">
<stop stop-color="#D0D0D0"/>
<stop offset="1" stop-color="#F3F3F3"/>
</linearGradient>
</defs>
</svg>
