<svg width="378" height="177" viewBox="0 0 378 177" fill="none" xmlns="http://www.w3.org/2000/svg">
<path d="M50.58 137.02C51.12 136.77 51.55 136.74 51.88 136.95C52.21 137.16 52.37 137.69 52.38 138.54C52.39 139.39 52.21 140.6 51.89 142.18C51.57 143.76 51.03 145.79 50.36 148.29C50.89 147.91 51.41 147.03 51.92 145.69C52.32 144.62 52.73 143.31 53.17 141.77C53.6 140.23 53.9 138.8 54.07 137.5C54.24 136.19 54.19 135.18 53.92 134.47C53.65 133.76 53 133.66 52.04 134.14C51.5 134.41 50.97 134.81 50.46 135.33C49.95 135.85 49.5 136.36 49.11 136.86C49.11 136.32 49.26 135.56 49.55 134.59C49.84 133.62 50.26 132.5 50.81 131.24C51.37 129.97 52.05 128.59 52.87 127.09C53.7 125.59 54.63 124.03 55.69 122.42C58.65 117.91 61.83 113.98 65.08 110.39C68.33 106.8 71.55 103.61 74.61 100.76C77.66 97.91 80.51 95.4 83.06 93.27C85.61 91.14 87.76 89.44 89.49 88.23C91.04 87.15 92.25 86.4 93.13 86.02C94.01 85.64 94.63 85.52 95 85.66C95.37 85.8 95.55 86.17 95.54 86.73C95.53 87.29 95.4 87.97 95.15 88.74C94.3 89.99 93.32 91.4 92.22 92.99C91.12 94.58 89.95 96.28 88.7 98.08C87.88 99.27 86.99 100.54 86.03 101.89C85.07 103.24 84.11 104.59 83.14 105.92C82.17 107.25 81.21 108.54 80.25 109.77C79.29 111 78.4 112.1 77.55 113.04C77.55 112.63 77.45 112.22 77.25 111.81C77.05 111.4 76.76 111.07 76.38 110.83C76 110.59 75.52 110.46 74.96 110.44C74.39 110.42 73.73 110.58 72.97 110.92C71.92 111.39 71.09 111.91 70.45 112.47C69.8 113.03 69.22 113.71 68.69 114.52C68.41 114.94 68.2 115.29 68.06 115.57C68.51 115.21 68.96 114.91 69.4 114.65C69.84 114.39 70.24 114.19 70.6 114.03C72.01 113.42 73.15 113.3 74.03 113.72C74.91 114.13 75.3 115.28 75.24 117.21C75.18 119.14 74.56 121.96 73.45 125.71C72.34 129.46 70.52 134.34 68.19 140.33C66.35 145.05 64.36 149.66 62.22 154.05C60.08 158.44 57.89 162.34 55.68 165.69C53.47 169.04 51.3 171.68 49.24 173.6C47.18 175.52 45.31 176.43 43.75 176.41C42.95 176.41 42.31 176.26 41.8 176C41.29 175.73 40.89 175.31 40.58 174.73C40.27 174.15 40.05 173.4 39.89 172.49C39.73 171.58 39.58 170.45 39.59 169.27C39.61 167.27 39.88 164.99 40.17 162.71C40.46 160.43 40.89 157.84 41.57 154.95C42.11 152.69 42.74 150.56 43.47 148.54C44.21 146.52 45 144.72 45.83 143.13C46.66 141.54 47.5 140.21 48.33 139.12C49.16 138.03 49.92 137.33 50.58 137.02Z" fill="#FAC02A"/>
<path d="M130.11 68.26C131.23 67.88 132.13 67.88 132.84 68.28C133.55 68.68 133.96 69.5 134.11 70.76C134.26 72.02 134.09 73.75 133.61 75.96C133.13 78.17 132.24 80.88 130.93 84.12C124.86 98.88 119.91 114.11 115.69 129.48C113.69 136.86 111.49 143.56 108.93 149.44C106.37 155.32 103.56 160.31 100.47 164.34C97.38 168.37 94.05 171.41 90.56 173.43C87.06 175.46 83.49 176.44 79.94 176.44C76.18 176.44 73.21 175.44 70.96 173.54C68.71 171.64 67.2 168.88 66.42 165.31C65.64 161.74 65.62 157.38 66.45 152.24C67.28 147.11 68.98 141.25 71.72 134.69C79.83 116.72 89.2 100.57 100.74 84.62C102.87 82.58 105.04 80.66 107.25 78.85C109.46 77.04 111.34 75.75 112.92 75.02C114.09 74.48 114.9 74.36 115.36 74.67C115.82 74.98 115.91 75.75 115.64 77.01C115.37 78.27 114.7 80.03 113.66 82.33C112.62 84.62 111.14 87.48 109.26 90.93C101.27 105.33 94.78 120.59 89.37 136.13C89.47 136.54 89.72 136.72 90.1 136.68C90.46 136.64 90.79 136.42 91.1 136.02C91.41 135.62 91.77 134.81 92.18 133.61C97.37 118.78 103.52 104.19 111.02 90.37C111.88 88.76 112.64 87.36 113.28 86.17C113.92 84.98 114.48 83.92 114.95 82.99C115.42 82.06 115.84 81.22 116.19 80.47C116.54 79.71 116.88 78.97 117.2 78.24C119.63 75.72 121.92 73.58 124.08 71.84C126.24 70.09 128.24 68.89 130.12 68.25L130.11 68.26Z" fill="#FAC02A"/>
<path d="M159.37 67.41C160.26 66.19 161.18 65.11 162.13 64.17C163.08 63.23 164.02 62.42 164.95 61.76C165.89 61.1 166.81 60.57 167.72 60.19C168.63 59.81 169.48 59.58 170.29 59.49C171.55 59.36 172.73 59.5 173.87 59.94C175.01 60.38 175.97 61.2 176.79 62.44C177.61 63.67 178.21 65.38 178.61 67.57C179.01 69.76 179.09 72.55 178.8 75.97C176.45 103.99 174.89 132.06 173.66 160.15C173.54 163 173.04 165.42 172.12 167.4C171.2 169.38 170.01 170.97 168.55 172.15C167.09 173.34 165.43 174.19 163.58 174.7C161.73 175.21 159.83 175.47 157.89 175.47C156.7 175.47 155.5 175.36 154.31 175.14C153.12 174.92 152.01 174.58 150.97 174.14C149.93 173.7 148.99 173.19 148.12 172.62C147.26 172.05 146.53 171.42 145.94 170.73C144.7 167.26 143.66 163.94 142.81 160.78C141.96 157.62 141.23 154.6 140.62 151.73C140.01 148.86 139.5 146.15 139.06 143.6C138.62 141.05 138.23 138.65 137.88 136.4C137.31 136.54 136.88 136.87 136.6 137.39C136.32 137.91 136.11 138.53 135.99 139.25C135.84 140.15 135.82 141.03 135.93 141.9C136.05 142.77 136.22 143.83 136.45 145.09C137.78 152.37 138.57 156.08 140.35 163.63C140.12 165.62 140.01 166.61 139.8 168.61C139.2 169.24 138.44 169.97 137.54 170.79C136.63 171.61 135.54 172.38 134.27 173.11C133 173.84 131.56 174.45 129.95 174.95C128.34 175.45 126.54 175.7 124.56 175.7C122.31 175.7 120.3 175.29 118.55 174.49C116.8 173.69 115.38 172.51 114.3 170.95C113.22 169.39 112.52 167.47 112.21 165.17C111.9 162.88 112.03 160.23 112.61 157.23C118.56 128.55 126.58 100.99 137.53 73.82C138.06 72.57 138.81 71.34 139.77 70.11C140.73 68.88 141.78 67.78 142.93 66.8C144.08 65.82 145.29 64.97 146.56 64.25C147.83 63.53 149.08 63.04 150.32 62.77C151.73 62.47 152.9 62.6 153.86 63.17C154.82 63.74 155.6 64.66 155.77 65.62C155.97 66.8 155.91 68.58 155.98 70.49C156.05 72.4 156.14 74.54 156.27 76.92C156.39 79.3 156.56 81.88 156.78 84.66C157 87.44 157.29 90.33 157.65 93.33C157.93 93.31 158.23 93.11 158.56 92.73C158.89 92.35 159.13 91.74 159.28 90.9C159.39 90.29 159.41 89.56 159.35 88.72C159.29 87.88 159.22 87.06 159.14 86.26C158.58 80.28 158.41 77.37 158.29 71.73C158.71 70 158.93 69.15 159.36 67.44L159.37 67.41Z" fill="#FAC02A"/>
<path d="M204.77 65.6C205.28 64.48 205.86 63.52 206.52 62.71C207.18 61.9 207.88 61.25 208.62 60.75C209.37 60.25 210.14 59.9 210.95 59.7C211.76 59.5 212.57 59.45 213.37 59.54C214.62 59.68 215.9 60.09 217.21 60.78C218.53 61.47 219.8 62.51 221.06 63.92C222.32 65.33 223.52 67.15 224.67 69.41C225.81 71.67 226.83 74.45 227.65 77.8C234.31 105.03 238.81 132.62 242.32 160.41C242.65 163.21 242.52 165.58 241.93 167.52C241.34 169.46 240.41 171.02 239.17 172.18C237.92 173.35 236.43 174.19 234.69 174.69C232.95 175.19 231.11 175.45 229.18 175.45C227.99 175.45 226.79 175.34 225.56 175.11C224.33 174.89 223.17 174.55 222.06 174.1C220.95 173.65 219.91 173.14 218.95 172.56C217.98 171.98 217.15 171.34 216.44 170.64C214.66 167.12 213.07 163.75 211.65 160.51C210.24 157.27 208.95 154.18 207.78 151.23C206.61 148.28 205.54 145.48 204.57 142.83C203.6 140.18 202.67 137.69 201.8 135.35C201.22 135.47 200.83 135.79 200.64 136.31C200.45 136.83 200.36 137.46 200.38 138.2C200.4 139.13 200.57 140.04 200.87 140.94C201.18 141.84 201.58 142.94 202.07 144.25C204.95 151.81 206.45 155.63 209.53 163.35C209.61 165.37 209.65 166.38 209.72 168.42C209.18 169.06 208.5 169.79 207.66 170.62C206.82 171.45 205.78 172.24 204.53 172.98C203.28 173.72 201.82 174.35 200.16 174.86C198.49 175.38 196.57 175.63 194.39 175.63C191.91 175.63 189.62 175.21 187.53 174.37C185.44 173.53 183.65 172.29 182.17 170.66C180.69 169.03 179.58 166.99 178.82 164.57C178.07 162.15 177.75 159.36 177.85 156.2C178.88 126.8 180.27 97.44 182.2 68.08C182.29 66.75 182.65 65.49 183.26 64.29C183.87 63.09 184.64 62.06 185.58 61.21C186.52 60.35 187.58 59.67 188.79 59.16C189.99 58.65 191.26 58.4 192.61 58.41C194.15 58.41 195.56 58.85 196.91 59.72C198.25 60.58 199.47 61.68 200.09 62.86C200.77 64.17 201.42 66.11 202.23 68.18C203.04 70.25 203.92 72.55 204.89 75.1C205.87 77.65 206.92 80.39 208.06 83.33C209.2 86.27 210.41 89.31 211.69 92.46C211.98 92.47 212.23 92.3 212.46 91.95C212.69 91.6 212.75 91 212.66 90.16C212.59 89.54 212.39 88.8 212.07 87.92C211.75 87.04 211.42 86.18 211.07 85.34C208.59 79.06 207.41 75.98 205.21 69.95C205.04 68.19 204.95 67.32 204.77 65.58V65.6Z" fill="#FAC02A"/>
<path d="M271.72 172.99C269.52 174.76 266.6 175.66 262.98 175.66C261.07 175.66 259.15 175.29 257.25 174.54C255.35 173.79 253.61 172.64 252.04 171.11C250.47 169.58 249.13 167.63 248.03 165.29C246.93 162.95 246.17 160.19 245.76 157.04C241.51 127.1 235.75 97.71 227.78 68.53C228.2 66.83 229.02 65.39 230.19 64.25C231.37 63.11 233.04 62.8 235.29 63.31C236.48 63.58 237.74 64.15 239.09 65C240.44 65.86 241.8 66.99 243.18 68.4C244.56 69.81 245.92 71.5 247.27 73.48C248.61 75.46 249.85 77.73 250.95 80.31C262.37 108.57 270.55 137.2 276.37 167.12C275.46 169.28 273.92 171.23 271.72 173V172.99Z" fill="#FAC02A"/>
<path d="M277.22 79.19C278.16 80.19 279.15 81.28 280.19 82.46C281.23 83.64 282.27 84.85 283.28 86.09C284.3 87.33 285.28 88.57 286.22 89.8C287.16 91.03 288 92.18 288.74 93.24C291.92 97.8 293.74 101.16 294.36 103.21C294.98 105.26 294.54 106.11 293.1 105.69C288.1 104.22 285.46 103.54 279.93 102.27C279.08 102.08 279.01 102.71 279.71 104.18C279.76 104.28 279.85 104.48 280 104.79C280.15 105.1 280.26 105.3 280.36 105.42C287.06 106.83 290.24 107.61 296.15 109.28C296.73 110.05 297.38 110.95 298.07 111.98C298.77 113.01 299.46 114.09 300.15 115.21C300.84 116.33 301.5 117.48 302.15 118.64C302.8 119.81 303.38 120.91 303.88 121.95C305.31 124.91 306.41 127.57 307.2 129.92C307.99 132.27 308.47 134.22 308.68 135.74C305.87 135.3 304.4 135.08 301.35 134.67C299.36 134.4 297.7 134.3 296.42 134.38C295.14 134.46 294.15 134.64 293.48 134.93C292.8 135.22 292.37 135.58 292.19 136.01C292.01 136.44 292 136.9 292.17 137.4C292.32 137.84 292.48 138.26 292.67 138.65C292.86 139.04 293.12 139.39 293.44 139.68C293.95 139.3 294.47 138.98 295.03 138.72C295.58 138.46 296.23 138.28 296.96 138.17C297.69 138.07 298.52 138.01 299.45 138.02C300.37 138.02 301.46 138.1 302.68 138.25C306.66 138.74 308.55 138.99 312.1 139.53C312.65 140.39 313.23 141.33 313.83 142.37C314.43 143.41 315.06 144.59 315.7 145.94C316.34 147.29 317.01 148.81 317.69 150.55C318.37 152.29 319.06 154.27 319.73 156.53C320.15 157.95 320.55 159.46 320.91 161.08C321.27 162.69 321.57 164.3 321.81 165.9C322.05 167.5 322.19 169.02 322.26 170.48C322.32 171.93 322.28 173.2 322.13 174.29C312.7 174.23 303.27 174.2 293.85 174.17C292.13 174.17 290.42 173.73 288.74 172.86C287.05 171.99 285.45 170.63 283.94 168.8C282.43 166.96 281.07 164.65 279.84 161.86C278.61 159.07 277.58 155.75 276.72 151.93C270.3 125.21 262.15 99.17 250.45 74.25C249.34 71.89 249.72 70.51 251.47 70.15C253.22 69.79 256.37 70.39 260.85 72.07C267.66 74.63 270.94 76.07 277.21 79.21L277.22 79.19Z" fill="#FAC02A"/>
<path d="M318.9 132.44C319.76 132.66 320.67 133.11 321.62 133.77C322.57 134.44 323.57 135.39 324.62 136.61C325.67 137.84 326.77 139.38 327.91 141.23C329.05 143.08 330.23 145.32 331.41 147.96C331.76 147.78 331.69 147.02 331.18 145.67C330.78 144.6 330.14 143.23 329.25 141.56C328.35 139.88 327.3 138.21 326.07 136.54C324.84 134.86 323.49 133.34 322 131.97C320.52 130.6 319.04 129.69 317.54 129.28C316.7 129.05 316.04 129.04 315.6 129.26C315.15 129.48 314.81 129.76 314.58 130.09C313.51 129.06 312.38 127.79 311.17 126.28C309.96 124.77 308.72 123.09 307.45 121.26C306.18 119.43 304.9 117.48 303.61 115.42C302.31 113.36 301.07 111.3 299.87 109.25C296.51 103.51 293.9 98.92 292.17 95.48C290.44 92.04 289.34 89.61 288.97 88.13C288.6 86.65 288.81 86 289.67 86.12C290.53 86.23 291.81 86.94 293.53 88.14C295.08 89.22 296.67 90.45 298.32 91.78C299.97 93.11 301.59 94.47 303.18 95.85C304.78 97.23 306.32 98.6 307.8 99.96C309.28 101.32 310.64 102.59 311.87 103.79C313.05 104.99 314.26 106.27 315.49 107.64C316.73 109.01 317.94 110.41 319.11 111.86C319.89 112.81 320.65 113.8 321.41 114.82C322.17 115.84 322.86 116.83 323.49 117.78C324.12 118.73 324.67 119.62 325.14 120.45C325.61 121.28 325.95 121.96 326.18 122.51C325.73 121.96 325.15 121.31 324.43 120.55C323.71 119.79 322.95 119.02 322.14 118.26C321.33 117.5 320.5 116.77 319.66 116.09C318.82 115.41 318.06 114.88 317.4 114.51C316.5 114.01 315.97 113.85 315.85 114.03C315.73 114.21 315.94 114.7 316.46 115.49C316.73 115.91 316.99 116.27 317.22 116.59C317.38 116.53 317.62 116.54 317.92 116.64C318.22 116.74 318.52 116.87 318.84 117.03C320.07 117.68 321.52 118.76 323.14 120.24C324.76 121.72 326.54 123.67 328.41 126.07C330.28 128.47 332.22 131.36 334.1 134.79C335.98 138.22 337.8 142.25 339.37 147.06C340.61 150.85 341.43 154.43 341.98 157.86C342.54 161.29 342.79 164.36 342.82 167.08C342.85 169.8 342.63 172.04 342.05 173.75C341.47 175.46 340.52 176.38 338.89 176.4C338.05 176.4 337.16 176.28 336.23 176C335.3 175.72 334.3 175.26 333.26 174.61C332.21 173.96 331.09 173.09 329.91 172C328.73 170.91 327.05 169.52 326.05 168.01C324.7 165.98 323.62 162.74 322.4 159.87C321.19 157.01 320.01 153.77 318.81 150.2C317.88 147.41 317.15 144.84 316.66 142.52C316.16 140.2 315.9 138.24 315.88 136.66C315.86 135.08 316.09 133.91 316.59 133.15C317.08 132.39 317.86 132.16 318.91 132.42L318.9 132.44Z" fill="#FAC02A"/>
<path fill-rule="evenodd" clip-rule="evenodd" d="M33.3135 151.007C31.0046 158.758 29.5857 166.779 29.1466 175H6.95867C0.450521 175 -1.4014 166.09 4.56769 163.497L33.3135 151.007ZM78.7701 88.0651C64.83 98.68 53.2845 111.237 44.8347 125.183L23.2611 82.0718C20.91 77.3735 25.3049 72.1364 30.3399 73.6365L78.7701 88.0651ZM145.18 57.3798C127.197 61.6239 110.519 68.2497 95.7347 76.7928L94.3231 25.7519C94.1778 20.5001 100.374 17.611 104.304 21.0986L145.18 57.3798ZM162.122 54.1539L183.964 3.71485C186.052 -1.10616 192.888 -1.10616 194.976 3.71484L216.51 53.4431C208.515 52.4927 200.331 52 192 52C181.795 52 171.808 52.7394 162.122 54.1539ZM345.196 151.007C347.505 158.758 348.924 166.779 349.363 175H371.551C378.059 175 379.911 166.09 373.942 163.497L345.196 151.007ZM299.74 88.0651C313.68 98.68 325.225 111.237 333.675 125.183L355.249 82.0718C357.6 77.3735 353.205 72.1364 348.17 73.6364L299.74 88.0651ZM233.33 57.3798C251.313 61.6239 267.991 68.2497 282.775 76.7928L284.187 25.7518C284.332 20.5 278.135 17.611 274.206 21.0986L233.33 57.3798Z" fill="#FAC02A"/>
</svg>
