<?xml version="1.0" encoding="UTF-8"?>
<svg id="Layer_2" data-name="Layer 2" xmlns="http://www.w3.org/2000/svg" xmlns:xlink="http://www.w3.org/1999/xlink" version="1.1" viewBox="0 0 746.8 414.2">
  <defs>
    <style>
      .cls-1 {
        fill: #b3b3b3;
      }

      .cls-1, .cls-2, .cls-3, .cls-4, .cls-5, .cls-6, .cls-7, .cls-8, .cls-9, .cls-10, .cls-11, .cls-12, .cls-13, .cls-14, .cls-15, .cls-16, .cls-17, .cls-18 {
        stroke-width: 0px;
      }

      .cls-2 {
        fill: url(#New_Gradient_Swatch_1);
      }

      .cls-3 {
        fill: url(#New_Gradient_Swatch_1-7);
      }

      .cls-4 {
        fill: url(#New_Gradient_Swatch_1-4);
      }

      .cls-5 {
        fill: url(#New_Gradient_Swatch_1-6);
      }

      .cls-6 {
        fill: url(#New_Gradient_Swatch_1-3);
      }

      .cls-7 {
        fill: url(#New_Gradient_Swatch_1-2);
      }

      .cls-8 {
        fill: url(#New_Gradient_Swatch_1-5);
      }

      .cls-9 {
        fill: none;
      }

      .cls-10 {
        fill: url(#linear-gradient);
      }

      .cls-11 {
        fill: #c69c6d;
      }

      .cls-12 {
        fill: #a67c52;
      }

      .cls-13 {
        fill: #39b54a;
      }

      .cls-14 {
        fill: #8c6239;
      }

      .cls-15 {
        fill: #abe1f4;
      }

      .cls-16 {
        fill: #c8c8c8;
      }

      .cls-17 {
        fill: #92d5e0;
      }

      .cls-18 {
        fill: #39b24a;
      }
    </style>
    <linearGradient id="linear-gradient" x1="0" y1="188.4" x2="746.8" y2="188.4" gradientTransform="translate(0 416) scale(1 -1)" gradientUnits="userSpaceOnUse">
      <stop offset="0" stop-color="#fff5c3"/>
      <stop offset="1" stop-color="#ffe9ad"/>
    </linearGradient>
    <linearGradient id="New_Gradient_Swatch_1" data-name="New Gradient Swatch 1" x1="-7420.8" y1="9395.1" x2="-7420.8" y2="9413.1" gradientTransform="translate(7782.1 9620.7) scale(1 -1)" gradientUnits="userSpaceOnUse">
      <stop offset="0" stop-color="#92d5e0"/>
      <stop offset="1" stop-color="#92d5e0" stop-opacity="0"/>
    </linearGradient>
    <linearGradient id="New_Gradient_Swatch_1-2" data-name="New Gradient Swatch 1" x1="-7420.8" y1="9395.1" x2="-7420.8" y2="9413.1" gradientTransform="translate(7616.6 9622.6) scale(1 -1)" xlink:href="#New_Gradient_Swatch_1"/>
    <linearGradient id="New_Gradient_Swatch_1-3" data-name="New Gradient Swatch 1" x1="-7420.8" y1="9395.1" x2="-7420.8" y2="9413.1" gradientTransform="translate(7948.6 9622.6) scale(1 -1)" xlink:href="#New_Gradient_Swatch_1"/>
    <linearGradient id="New_Gradient_Swatch_1-4" data-name="New Gradient Swatch 1" x1="279.5" y1="310.4" x2="279.5" y2="328.4" gradientTransform="translate(0 416) scale(1 -1)" xlink:href="#New_Gradient_Swatch_1"/>
    <linearGradient id="New_Gradient_Swatch_1-5" data-name="New Gradient Swatch 1" x1="280.5" y1="68.4" x2="280.5" y2="86.4" gradientTransform="translate(0 416) scale(1 -1)" xlink:href="#New_Gradient_Swatch_1"/>
    <linearGradient id="New_Gradient_Swatch_1-6" data-name="New Gradient Swatch 1" x1="-7428.8" y1="9396.1" x2="-7428.8" y2="9414.1" gradientTransform="translate(7871.6 9501.8) scale(1 -1)" xlink:href="#New_Gradient_Swatch_1"/>
    <linearGradient id="New_Gradient_Swatch_1-7" data-name="New Gradient Swatch 1" x1="-7428.8" y1="9392.1" x2="-7428.8" y2="9410.1" gradientTransform="translate(7872.2 9740) scale(1 -1)" xlink:href="#New_Gradient_Swatch_1"/>
  </defs>
  <g id="Layer_2-2" data-name="Layer 2-2">
    <path class="cls-10" d="M207,66.8C53,121.1-56.3,233.1,31,277.6c63.6,32.4,62.1,67,116.8,93.1,117.1,55.7,388.2,52.3,466.5,21.9,124.8-48.6,118.3-124.5,99.9-167.1-22-51,51.1-66.8,28.1-97.7-22.6-30.4-75.4-16.5-132.7-31.3-78.9-20.4-221-93.7-402.6-29.6h0Z"/>
    <path class="cls-12" d="M691.2,95.7c0,1.3,0,2.6.2,3.9v.6c0,.8.7,1.5,1.5,1.5.8,0,1.5-.7,1.5-1.5,0-1.3,0-2.6-.2-3.9v-.6c0-.8-.7-1.5-1.5-1.5-.8,0-1.5.7-1.5,1.5h0Z"/>
    <path class="cls-12" d="M620,45.3c.7,1.1,1.4,2.2,2.1,3.3,0,.2.2.3.3.5.2.3.5.6.9.7s.8,0,1.2-.2c.7-.4,1-1.3.5-2-.7-1.1-1.4-2.2-2.1-3.3,0-.2-.2-.3-.3-.5-.2-.3-.5-.6-.9-.7s-.8,0-1.2.2c-.7.4-1,1.3-.5,2h0Z"/>
    <path class="cls-12" d="M616.5,2.2c.7,1.1,1.4,2.2,2.1,3.3,0,.2.2.3.3.5.2.3.5.6.9.7s.8,0,1.2-.2c.7-.4,1-1.3.5-2-.7-1.1-1.4-2.2-2.1-3.3,0-.2-.2-.3-.3-.5-.2-.3-.5-.6-.9-.7S617.3,0,617,.2c-.7.4-1,1.3-.5,2h0Z"/>
    <path class="cls-17" d="M634,219.3c0,87.9-122,159.2-272.5,159.2S89,307.2,89,219.3,211.1,60.1,361.5,60.1s272.5,71.3,272.5,159.2h0Z"/>
    <path class="cls-15" d="M618.8,214.7c0,85.5-118.6,154.8-264.9,154.8S89,300.2,89,214.7,207.6,59.9,353.9,59.9s264.9,69.3,264.9,154.8h0Z"/>
    <path class="cls-11" d="M657.9,162.9h.6c5.3-36.5,0-77.8-14.1-111.5-3.6-8.4-7.8-16.5-12.7-24.1,19.8,42.2,27.4,89.2,26.2,135.7h0Z"/>
    <path class="cls-11" d="M681.4,180.9c4.3-10,7-20.6,9.2-31.2,2.1-11.2,3.4-22.5,3.5-33.9-3.2,21.6-6.9,44.1-12.9,65.1h.2Z"/>
    <polygon class="cls-1" points="133.9 340.8 158.7 357.4 194.6 357.4 203.8 354.8 192.1 320.9 185.1 317.9 178.1 308.9 155.1 309.9 133.9 340.8"/>
    <polygon class="cls-1" points="94.1 318.9 108 325.5 130.8 322.2 120.4 306.9 106.3 306.9 94.1 318.9"/>
    <polygon class="cls-16" points="110.1 312.9 106.3 306.9 120.4 306.9 121.1 309.9 110.1 312.9"/>
    <polygon class="cls-16" points="158.1 314.9 158.7 357.4 133.9 340.8 146.1 322.9 158.1 314.9"/>
    <polygon class="cls-1" points="120.3 331.1 114.7 337.3 119.2 341 138.1 343.6 142.8 327.8 120.3 331.1"/>
    <line class="cls-9" x1="114.7" y1="337.3" x2="120.3" y2="331.1"/>
    <polygon class="cls-16" points="127.7 334.2 120.3 331.1 142.8 327.8 127.7 334.2"/>
    <path class="cls-11" d="M658.2,162.9c1-24.6-3.7-49.4-12.6-72.3l-1.3-3.2s-1.5-3.2-1.5-3.2c-2.2-5-5.3-10.8-8-15.5-1.8-2.8-3.9-6-5.8-8.7,2,4.1,4.4,8.2,6.2,12.4,13.2,28.3,20.2,59.4,22.6,90.5h.3Z"/>
    <path class="cls-18" d="M660,162.9c11.8-23.6,20.6-63.6,14.6-87.5-4.8,14.9-9.1,29.9-12.1,45.2-2.7,14-5,27.9-5,42.3h2.5,0Z"/>
    <path class="cls-18" d="M659.6,162.9c3.3-9.1,4.6-18.8,5.2-28.5.5-11.1-.2-22.3-3.3-33-1.7,10.8-2.1,21.8-2.7,32.7-.5,9.6-.9,19.1-.8,28.8h1.6Z"/>
    <path class="cls-18" d="M651.9,162.9h2.3c1-17.5-10.3-37.8-24-47.2l-.4.3c2.8,4,5.5,8,8,12.2,6.1,10.4,11.3,21.6,13.9,33.4,0,.4.2.8.3,1.2h0Z"/>
    <path class="cls-13" d="M681.8,180.9c8-5.1,15.4-17.1,11.3-26-2.9,9.5-9,16.8-12.6,26h1.3Z"/>
    <path class="cls-14" d="M636.7,24.4c-3.3-6.3-6.7-12.7-10-19-3.6-6.8-14-.8-10.4,6.1,3.3,6.3,6.7,12.7,10,19,3.6,6.8,14,.8,10.4-6.1h0Z"/>
    <path class="cls-14" d="M635.9,60.9c-2.5-4.4-4.9-8.9-7.4-13.3-3.1-5.6-11.8-.6-8.6,5,2.5,4.4,4.9,8.9,7.4,13.3,3.1,5.6,11.8.6,8.6-5h0Z"/>
    <path class="cls-14" d="M688.1,101.6c.2,4.3.3,8.7.5,13,.2,6.4,10.2,6.4,10,0-.2-4.3-.3-8.7-.5-13-.2-6.4-10.2-6.4-10,0h0Z"/>
    <ellipse class="cls-2" cx="361.3" cy="216.5" rx="58.9" ry="9"/>
    <g>
      <ellipse class="cls-7" cx="195.8" cy="218.5" rx="58.9" ry="9"/>
      <ellipse class="cls-6" cx="527.8" cy="218.5" rx="58.9" ry="9"/>
    </g>
    <ellipse class="cls-4" cx="279.5" cy="96.6" rx="58.9" ry="9"/>
    <ellipse class="cls-8" cx="280.5" cy="338.6" rx="58.9" ry="9"/>
    <ellipse class="cls-5" cx="442.8" cy="96.7" rx="58.9" ry="9"/>
    <path class="cls-3" d="M502.3,338.8c0,5-26.4,9-58.9,9s-58.9-4-58.9-9,26.4-9,58.9-9,58.9,4,58.9,9h0Z"/>
  </g>
</svg>