<svg width="375" height="208" viewBox="0 0 375 208" fill="none" xmlns="http://www.w3.org/2000/svg">
<g clip-path="url(#clip0_67_396)">
<path d="M103.944 33.5452C26.6136 60.8132 -28.2706 117.057 15.5664 139.403C47.5027 155.674 46.7495 173.049 74.2167 186.156C133.018 214.127 269.148 212.419 308.466 197.153C371.134 172.748 367.87 134.633 358.63 113.24C347.583 87.6292 384.29 79.6949 372.74 64.1777C361.392 48.9117 334.879 55.8919 306.106 48.4597C266.487 38.2154 195.133 1.40613 103.944 33.5954V33.5452Z" fill="#FAF9F6"/>
<path d="M347.081 48.058C347.081 48.7108 347.081 49.3636 347.181 50.0165V50.3178C347.181 50.7195 347.533 51.071 347.935 51.071C348.336 51.071 348.688 50.7195 348.688 50.3178C348.688 49.6649 348.688 49.0121 348.587 48.3593V48.058C348.587 47.6562 348.236 47.3047 347.834 47.3047C347.432 47.3047 347.081 47.6562 347.081 48.058Z" fill="#A67C52"/>
<path d="M311.328 22.7485C311.68 23.3009 312.031 23.8533 312.383 24.4056C312.383 24.5061 312.483 24.5563 312.534 24.6567C312.634 24.8074 312.785 24.958 312.985 25.0083C313.186 25.0585 313.387 25.0083 313.588 24.9078C313.94 24.707 314.09 24.255 313.839 23.9035C313.488 23.3511 313.136 22.7987 312.785 22.2463C312.785 22.1459 312.684 22.0957 312.634 21.9952C312.534 21.8446 312.383 21.6939 312.182 21.6437C311.981 21.5935 311.78 21.6437 311.579 21.7441C311.228 21.945 311.077 22.397 311.328 22.7485Z" fill="#A67C52"/>
<path d="M309.571 1.10483C309.922 1.65722 310.274 2.20961 310.625 2.762C310.625 2.86243 310.726 2.91265 310.776 3.01308C310.876 3.16374 311.027 3.31439 311.228 3.36461C311.429 3.41482 311.63 3.36461 311.831 3.26417C312.182 3.0633 312.333 2.61135 312.082 2.25982C311.73 1.70743 311.379 1.15504 311.027 0.602655C311.027 0.50222 310.927 0.452003 310.876 0.351568C310.776 0.200916 310.625 0.0502645 310.425 4.71659e-05C310.224 -0.0501701 309.973 4.71622e-05 309.822 0.100482C309.47 0.301351 309.32 0.753307 309.571 1.10483Z" fill="#A67C52"/>
<path d="M318.358 110.127C318.358 154.268 257.097 190.072 181.525 190.072C105.952 190.072 44.6907 154.268 44.6907 110.127C44.6907 65.9856 106.002 30.1806 181.525 30.1806C257.047 30.1806 318.358 65.9856 318.358 110.127Z" fill="#97D6ED"/>
<path d="M310.726 107.817C310.726 150.752 251.172 185.553 177.708 185.553C104.245 185.553 44.6907 150.752 44.6907 107.817C44.6907 64.8808 104.245 30.0802 177.708 30.0802C251.172 30.0802 310.726 64.8808 310.726 107.817Z" fill="#BFE5F3"/>
<path d="M67.2369 171.141L79.69 179.477H97.7169L102.337 178.171L96.4616 161.147L92.9466 159.641L89.4316 155.121L77.8823 155.623L67.2369 171.141Z" fill="#B3B3B3"/>
<path d="M47.2516 160.143L54.2314 163.457L65.6803 161.8L60.458 154.117H53.3778L47.2516 160.143Z" fill="#B3B3B3"/>
<path d="M55.2859 157.13L53.3778 154.117H60.458L60.8095 155.623L55.2859 157.13Z" fill="#C8C8C8"/>
<path d="M79.3887 158.134L79.69 179.477L67.2369 171.141L73.363 162.152L79.3887 158.134Z" fill="#C8C8C8"/>
<path d="M60.4078 166.269L57.5958 169.383L59.8554 171.241L69.3459 172.547L71.706 164.612L60.4078 166.269Z" fill="#B3B3B3"/>
<path d="M64.1236 167.826L60.4078 166.269L71.706 164.612L64.1236 167.826Z" fill="#C8C8C8"/>
<path fill-rule="evenodd" clip-rule="evenodd" d="M330.36 81.8542V81.804H330.361L330.36 81.8542ZM330.361 72.5299C329.699 63.2789 327.534 54.1196 324.183 45.4969L323.53 43.8899L322.777 42.283C321.673 39.7721 320.116 36.8595 318.76 34.4993C317.856 33.0932 316.802 31.4862 315.848 30.1304C316.229 30.9129 316.64 31.6954 317.052 32.4807C317.724 33.7616 318.401 35.0498 318.961 36.3573C325.589 50.5688 329.104 66.1864 330.309 81.804L330.361 81.804H330.661C333.322 63.4747 330.661 42.7349 323.581 25.8117C321.773 21.5935 319.664 17.5259 317.203 13.7094C325.823 32.0825 329.839 52.2675 330.361 72.5299ZM342.16 90.8431C344.319 85.8213 345.675 80.4983 346.78 75.1753C347.834 69.5509 348.487 63.8764 348.537 58.1516C346.93 68.9985 345.072 80.2974 342.059 90.8431H342.16Z" fill="#C6AD6D"/>
<path fill-rule="evenodd" clip-rule="evenodd" d="M331.414 81.804C337.339 69.9527 341.758 49.8658 338.745 37.8639C336.714 44.1692 334.861 50.5102 333.427 56.947C333.151 54.9141 332.741 52.9002 332.167 50.9204C331.429 55.6093 331.179 60.3732 330.93 65.1149C330.891 65.8578 330.852 66.6001 330.811 67.3414C330.68 69.8556 330.563 72.3561 330.488 74.8643C330.279 77.1581 330.159 79.468 330.159 81.804H331.414ZM328.502 81.804H327.347L327.397 81.7538C327.38 81.6869 327.358 81.6199 327.336 81.553C327.291 81.4191 327.246 81.2851 327.246 81.1512C325.941 75.2256 323.33 69.6012 320.266 64.3786C319.011 62.2695 317.655 60.2608 316.249 58.2521L316.45 58.1015C323.33 62.8219 329.004 73.016 328.502 81.804ZM348.035 77.7866C350.094 82.256 346.378 88.282 342.361 90.8431H341.708C342.514 88.7837 343.569 86.9138 344.62 85.0512C345.927 82.7354 347.228 80.4307 348.035 77.7866Z" fill="#47C033"/>
<path d="M319.714 12.2531C318.057 9.08938 316.35 5.87547 314.693 2.71178C312.885 -0.702995 307.663 2.31004 309.47 5.77504C311.127 8.93872 312.835 12.1526 314.492 15.3163C316.3 18.7311 321.522 15.7181 319.714 12.2531Z" fill="#8C6239"/>
<path d="M319.312 30.5824C318.057 28.3728 316.852 26.113 315.597 23.9035C314.04 21.0913 309.671 23.6022 311.278 26.4143C312.533 28.6239 313.739 30.8837 314.994 33.0932C316.551 35.9054 320.919 33.3945 319.312 30.5824Z" fill="#8C6239"/>
<path d="M345.524 51.0208C345.625 53.1802 345.675 55.3897 345.775 57.5491C345.876 60.763 350.897 60.763 350.797 57.5491C350.696 55.3897 350.646 53.1802 350.546 51.0208C350.445 47.8069 345.424 47.8069 345.524 51.0208Z" fill="#8C6239"/>
<path d="M181.576 114.039C197.911 114.039 211.152 112.016 211.152 109.52C211.152 107.023 197.911 105 181.576 105C165.242 105 152 107.023 152 109.52C152 112.016 165.242 114.039 181.576 114.039Z" fill="url(#paint0_linear_67_396)"/>
<path d="M98.3195 114.244C114.654 114.244 127.896 112.221 127.896 109.725C127.896 107.229 114.654 105.205 98.3195 105.205C81.985 105.205 68.7433 107.229 68.7433 109.725C68.7433 112.221 81.985 114.244 98.3195 114.244Z" fill="url(#paint1_linear_67_396)"/>
<path d="M265.031 114.244C281.365 114.244 294.607 112.221 294.607 109.725C294.607 107.229 281.365 105.205 265.031 105.205C248.696 105.205 235.455 107.229 235.455 109.725C235.455 112.221 248.696 114.244 265.031 114.244Z" fill="url(#paint2_linear_67_396)"/>
<path d="M140.349 53.0295C156.683 53.0295 169.925 51.006 169.925 48.5099C169.925 46.0138 156.683 43.9904 140.349 43.9904C124.014 43.9904 110.773 46.0138 110.773 48.5099C110.773 51.006 124.014 53.0295 140.349 53.0295Z" fill="url(#paint3_linear_67_396)"/>
<path d="M140.851 174.555C157.185 174.555 170.427 172.532 170.427 170.036C170.427 167.54 157.185 165.516 140.851 165.516C124.517 165.516 111.275 167.54 111.275 170.036C111.275 172.532 124.517 174.555 140.851 174.555Z" fill="url(#paint4_linear_67_396)"/>
<path d="M222.349 53.0798C238.683 53.0798 251.925 51.0563 251.925 48.5602C251.925 46.0641 238.683 44.0406 222.349 44.0406C206.014 44.0406 192.773 46.0641 192.773 48.5602C192.773 51.0563 206.014 53.0798 222.349 53.0798Z" fill="url(#paint5_linear_67_396)"/>
<path d="M252.226 170.136C252.226 172.647 238.97 174.656 222.65 174.656C206.33 174.656 193.074 172.647 193.074 170.136C193.074 167.625 206.33 165.617 222.65 165.617C238.97 165.617 252.226 167.625 252.226 170.136Z" fill="url(#paint6_linear_67_396)"/>
</g>
<defs>
<linearGradient id="paint0_linear_67_396" x1="181.576" y1="114.089" x2="181.576" y2="105.05" gradientUnits="userSpaceOnUse">
<stop stop-color="#7EC8E3" stop-opacity="0.3"/>
<stop offset="1" stop-color="#7EC8E3" stop-opacity="0"/>
</linearGradient>
<linearGradient id="paint1_linear_67_396" x1="98.3195" y1="114.244" x2="98.3195" y2="105.205" gradientUnits="userSpaceOnUse">
<stop stop-color="#7EC8E3" stop-opacity="0.3"/>
<stop offset="1" stop-color="#7EC8E3" stop-opacity="0"/>
</linearGradient>
<linearGradient id="paint2_linear_67_396" x1="265.031" y1="114.244" x2="265.031" y2="105.205" gradientUnits="userSpaceOnUse">
<stop stop-color="#7EC8E3" stop-opacity="0.3"/>
<stop offset="1" stop-color="#7EC8E3" stop-opacity="0"/>
</linearGradient>
<linearGradient id="paint3_linear_67_396" x1="140.349" y1="53.0295" x2="140.349" y2="43.9904" gradientUnits="userSpaceOnUse">
<stop stop-color="#7EC8E3" stop-opacity="0.3"/>
<stop offset="1" stop-color="#7EC8E3" stop-opacity="0"/>
</linearGradient>
<linearGradient id="paint4_linear_67_396" x1="140.851" y1="174.555" x2="140.851" y2="165.516" gradientUnits="userSpaceOnUse">
<stop stop-color="#7EC8E3" stop-opacity="0.3"/>
<stop offset="1" stop-color="#7EC8E3" stop-opacity="0"/>
</linearGradient>
<linearGradient id="paint5_linear_67_396" x1="222.349" y1="53.0798" x2="222.349" y2="44.0406" gradientUnits="userSpaceOnUse">
<stop stop-color="#7EC8E3" stop-opacity="0.3"/>
<stop offset="1" stop-color="#7EC8E3" stop-opacity="0"/>
</linearGradient>
<linearGradient id="paint6_linear_67_396" x1="222.65" y1="174.706" x2="222.65" y2="165.667" gradientUnits="userSpaceOnUse">
<stop stop-color="#7EC8E3" stop-opacity="0.3"/>
<stop offset="1" stop-color="#7EC8E3" stop-opacity="0"/>
</linearGradient>
<clipPath id="clip0_67_396">
<rect width="375" height="208" fill="white"/>
</clipPath>
</defs>
</svg>
