<svg width="321" height="10" viewBox="0 0 321 10" fill="none" xmlns="http://www.w3.org/2000/svg">
<path d="M273 9.10002C273 9.04479 273.045 9.00002 273.1 9.00002H282.9C282.955 9.00002 283 9.04479 283 9.10002V9.90002C283 9.95525 282.955 10 282.9 10H273.1C273.045 10 273 9.95525 273 9.90002V9.10002Z" fill="#F8E7A0"/>
<path fill-rule="evenodd" clip-rule="evenodd" d="M312.017 5.58217H242.697C242.491 3.57063 240.821 2.00002 238.793 2.00002C236.764 2.00002 235.094 3.57063 234.888 5.58217H203.556C203.35 3.57063 201.68 2.00002 199.651 2.00002C197.623 2.00002 195.953 3.57063 195.747 5.58217H164.415C164.209 3.57063 162.539 2.00002 160.51 2.00002C158.482 2.00002 156.812 3.57063 156.606 5.58217H125.274C125.068 3.57063 123.398 2.00002 121.369 2.00002C119.341 2.00002 117.671 3.57063 117.465 5.58217H86.1327C85.9265 3.57063 84.2567 2.00002 82.2281 2.00002C80.1995 2.00002 78.5296 3.57063 78.3235 5.58217H46.9916C46.7854 3.57063 45.1156 2.00002 43.087 2.00002C41.0584 2.00002 39.3885 3.57063 39.1823 5.58217H7.83399C7.62784 3.57063 5.95796 2.00002 3.92937 2.00002C1.76059 2.00002 0 3.7932 0 6.00212C0 8.21105 1.76059 10.0042 3.92937 10.0042C5.95796 10.0042 7.62784 8.43362 7.83399 6.42207H39.1658C39.372 8.43362 41.0419 10.0042 43.0705 10.0042C45.0991 10.0042 46.7689 8.43362 46.9751 6.42207H78.307C78.5131 8.43362 80.183 10.0042 82.2116 10.0042C84.2402 10.0042 85.91 8.43362 86.1162 6.42207H117.448C117.654 8.43362 119.324 10.0042 121.353 10.0042C123.381 10.0042 125.051 8.43362 125.257 6.42207H156.589C156.795 8.43362 158.465 10.0042 160.494 10.0042C162.522 10.0042 164.192 8.43362 164.398 6.42207H195.73C195.936 8.43362 197.606 10.0042 199.635 10.0042C201.663 10.0042 203.333 8.43362 203.54 6.42207H234.871C235.078 8.43362 236.747 10.0042 238.776 10.0042C240.805 10.0042 242.475 8.43362 242.681 6.42207H312.018C312.006 6.28293 312 6.14217 312 6.00002C312 5.85931 312.006 5.71995 312.017 5.58217Z" fill="white"/>
<path fill-rule="evenodd" clip-rule="evenodd" d="M317 10C319.209 10 321 8.20916 321 6.00002C321 3.79088 319.209 2.00002 317 2.00002C314.791 2.00002 313 3.79088 313 6.00002C313 8.20916 314.791 10 317 10ZM317 9.00002C318.657 9.00002 320 7.65688 320 6.00002C320 4.34317 318.657 3.00002 317 3.00002C315.343 3.00002 314 4.34317 314 6.00002C314 7.65688 315.343 9.00002 317 9.00002Z" fill="white"/>
<path fill-rule="evenodd" clip-rule="evenodd" d="M277.923 0.0910688C277.963 0.043537 278.037 0.043537 278.077 0.0910688L280.381 2.83171C280.412 2.86953 280.467 2.87846 280.509 2.85273L282.848 1.42612C282.915 1.38547 283 1.43344 283 1.51149V7.60002C283 7.82094 282.821 8.00002 282.6 8.00002H273.4C273.179 8.00002 273 7.82094 273 7.60002V1.51149C273 1.43344 273.085 1.38547 273.152 1.42612L275.491 2.85273C275.533 2.87846 275.588 2.86953 275.619 2.83171L277.923 0.0910688Z" fill="#F8E7A0"/>
</svg>
