<?xml version="1.0" encoding="UTF-8"?>
<svg id="Layer_2" data-name="Layer 2" xmlns="http://www.w3.org/2000/svg" viewBox="0 0 778.53 19.05">
  <defs>
    <style>
      .cls-1 {
        fill: #fff;
        stroke-width: 0px;
      }
    </style>
  </defs>
  <g id="Layer_2-2" data-name="Layer 2">
    <path class="cls-1" d="M769.01,0c-4.92,0-8.97,3.74-9.47,8.53h-75.99c-.5-4.79-4.55-8.53-9.47-8.53s-8.97,3.74-9.47,8.53h-75.99c-.5-4.79-4.55-8.53-9.47-8.53s-8.97,3.74-9.47,8.53h-75.99c-.5-4.79-4.55-8.53-9.47-8.53s-8.97,3.74-9.47,8.53h-75.99c-.5-4.79-4.55-8.53-9.47-8.53s-8.97,3.74-9.47,8.53h-75.99c-.5-4.79-4.55-8.53-9.47-8.53s-8.97,3.74-9.47,8.53h-75.99c-.5-4.79-4.55-8.53-9.47-8.53s-8.97,3.74-9.47,8.53h-75.99c-.5-4.79-4.55-8.53-9.47-8.53s-8.97,3.74-9.47,8.53H19C18.5,3.74,14.45,0,9.53,0,4.27,0,0,4.27,0,9.53s4.27,9.53,9.53,9.53c4.92,0,8.97-3.74,9.47-8.53h75.99c.5,4.79,4.55,8.53,9.47,8.53s8.97-3.74,9.47-8.53h75.99c.5,4.79,4.55,8.53,9.47,8.53s8.97-3.74,9.47-8.53h75.99c.5,4.79,4.55,8.53,9.47,8.53s8.97-3.74,9.47-8.53h75.99c.5,4.79,4.55,8.53,9.47,8.53s8.97-3.74,9.47-8.53h75.99c.5,4.79,4.55,8.53,9.47,8.53s8.97-3.74,9.47-8.53h75.99c.5,4.79,4.55,8.53,9.47,8.53s8.97-3.74,9.47-8.53h75.99c.5,4.79,4.55,8.53,9.47,8.53s8.97-3.74,9.47-8.53h75.99c.5,4.79,4.55,8.53,9.47,8.53,5.26,0,9.53-4.27,9.53-9.53s-4.27-9.53-9.53-9.53Z"/>
  </g>
</svg>